<svg xmlns="http://www.w3.org/2000/svg" xmlns:xlink="http://www.w3.org/1999/xlink" viewBox="0 0 1920 1080"><defs><radialGradient id="a" cx="960" cy="540" r="778.85" gradientUnits="userSpaceOnUse"><stop offset="0.06" stop-color="#eddab0"/><stop offset="0.9" stop-color="#b49c68"/></radialGradient><linearGradient id="b" x1="1274.02" y1="721.93" x2="1613" y2="721.93" gradientUnits="userSpaceOnUse"><stop offset="0" stop-color="#fff" stop-opacity="0.2"/><stop offset="0.99" stop-color="#fff"/></linearGradient><linearGradient id="c" x1="1486.02" y1="393.9" x2="1708.9" y2="303.96" xlink:href="#b"/><linearGradient id="d" x1="136.64" y1="264.82" x2="384.62" y2="153.42" xlink:href="#b"/><linearGradient id="e" x1="550.41" y1="521.26" x2="891.17" y2="441.38" xlink:href="#b"/><linearGradient id="f" x1="266.66" y1="755.52" x2="586.02" y2="667.33" xlink:href="#b"/><linearGradient id="g" x1="879.67" y1="187.23" x2="1184.86" y2="105.76" xlink:href="#b"/><linearGradient id="h" x1="1081.24" y1="722.59" x2="1433.09" y2="615.52" xlink:href="#b"/></defs><title>clouds</title><rect width="1920" height="1080" style="fill:url(#a)"/><path d="M1309.51,708.71a2.43,2.43,0,0,0,2.81-.13c6.18,1.55,7-3.2,8.5-7.19l-.75.33L1323,697l-.19.35L1333.55,685l-.94.42,4.75-3.66-.51.9c11.26-6.52,22.73-13.13,36.26-11.88,10.6,1,17.51-2.9,21.95-12.16l-.88-.21s-.19.89-.18.89l4.51-4-1.05.08s.11,1.05.12,1l6-4.9-.15.1,14.32-8.21-.4.24c25.29-10.9,50.62-10.46,76-.2l-.63-.81,4.7,2.54-.13-.06a196.65,196.65,0,0,1,29.2,26l-.12-.16c2.87,6.92,5.19,13.29,14.88,14.45,8.26,1,16.11,5.41,24.14,8.31l-.11-.08,13.09,13-.08-.13c3,19.49,18.6,28.47,32.41,38.95v0c7.73,26.53-4.42,50.85-26,46.08-18.78-4.15-35.13,0-52.58,1.26a26.54,26.54,0,0,1-11.08-1.71c-7.24-2.8-12.86-1-19.37,3-30.82,18.67-62.15,18.67-92.81-.31-6.58-4.08-12-5.06-19.27-3-16.36,4.68-32,1.7-46.41-7-4.62-2.79-8.57-6-14.56-2.6-10,5.66-20.8,4-31.47,2l.51.33-10.58-6,.25.32-3.52-3.61-2.71-3.19c-8.75-14.51-9-29.47-2.39-44.8l-1,.08s.1,1,.11,1l3.34-4.63-.55.66,3.68-3.87-.49.48,3.93-3.54-.32.39,20.29-8.44.57.29.72.42Z" style="fill:url(#b)"/><path d="M1481.11,393.06c-9.86-9.2-16.7-19.92-16.06-34,1-22.09,19.1-38.22,42.06-36.82,6.49.4,9.3-.75,12.07-7.13,16.37-37.82,62.26-42.51,86.37-9,4.62,6.43,8.67,10.43,17.66,8.93,10.23-1.71,19.59,2.56,26.12,10.76,3.54,4.44,6.68,5.43,11.93,3.64,9.48-3.23,18.61-.53,27.53,3l3,1.89,0,0,4.3,3.63.08-.8s-.8-.07-.8-.06l3.17,3.15-.09-.83-.82.1,3.53,4.66-.22-.45a5.72,5.72,0,0,0,2.65,5.06l-.16-.17c7.64,31.75-7.57,51.16-40.46,51.24q-63.86.17-127.72,0c-14.94,0-30,1.13-44.78-1.85l.2.15c-1.85-2.32-4.57-2.77-7.23-3.32v.83h.83Z" style="fill:url(#c)"/><path d="M382,218.78a2,2,0,0,0,1.08,2.09c11.42,30.89-2.26,50.27-35.57,50.28-59.86,0-119.73-.06-179.59.09-9.44,0-18.66-.63-27.65-3.6-17.66-10.44-27.68-25.41-24.5-46.34,3-20.09,15.51-32.48,35.49-36.64,4.73-1,6.83-2.82,8.29-7.64,14.47-47.7,50.07-61.67,94.42-37.36l4.42,3.27-.15-.75-.75.15,3.39,3.64-.56-.34,6.4,8.05-.12-.16c2.14,4.9,2.7,11.15,11.1,9.06,13.71-3.41,26.8-.31,39.45,5.23l.05,0c2,3,4,6,8.22,6.1l-.37-.59,3.52,3.47-.71-.68,3.51,3.58-.78-.39c.14.45.29.89.41,1.33,5,18.9,14.84,31.18,36.78,27l-.33-.23,6.27,3.16-.08-.77-.76.09,3.59,3,2.66,2.54Z" style="fill:url(#d)"/><path d="M552.1,536.34c-13-10.61-21.55-23.06-14.65-40.58,6.39-16.24,19.15-22.59,36-20.2,5.93.84,8.14-2.31,11-6.14,11-14.67,25.59-21.67,43.88-17.69,6.88,1.5,10.4-.33,14.36-5.67,12.49-16.85,29.75-23.69,50.26-20.38,8.47,1.37,12.06-2,16.63-8.21,31-41.94,87.82-37.9,113,7.84,2.81,5.11,4.11,10.71,11.86,10.23,16.35-1,28.53,7.66,39.77,18.15l5,6.81-.17-.32c0,2.25.6,4.14,3,4.87l-1.11-.43c15.57,44-17,76-59.84,75.06-79.34-1.66-158.73-.53-238.1-.37A137.33,137.33,0,0,1,552.1,536.34Z" style="fill:url(#e)"/><path d="M513.15,720.27l2.62,3c13.06,4.85,26.51-3.51,39.57,1.2l-.32-.75-.75.33,13.59,7.34-.11-.95-.94.13,7.54,6.82.11-.82-.82-.09,4.52,6.18h0c6.87,18.73,6.87,18.79-12.51,18.8q-157.32.08-314.64.1c1.19-25.91,14.87-42.19,39.91-47.36,4.93-1,9.66.28,11.8-7.54,19.9-72.52,78.49-91.77,135.21-44.9l3.69,4.05-.83-.78,3.76,4.46-.2-.89-.89.22c3,6.74,7.48,13.23,8.76,20.28,2.39,13.14,9,16.68,20.93,12.46l7.67,1.21L506.49,714l3.16,2.75Z" style="fill:url(#f)"/><path d="M866.16,194.84c-4.53-15.32,4.56-27.88,21.53-34.16,18-6.66,35.37-15.33,44.33-34.27.7-1.48,1.78-3.65,3-3.87,18-3.32,20.94-21,30.8-32a61.28,61.28,0,0,1,98.64,9c5.31,8.77,10.54,11.64,20.73,11.54,19.56-.18,33.93,9.86,41.82,28,2.72,6.24,4.81,10,13.19,8.15,18.49-4.17,31,4.81,39.3,20.83,3.28,24.91,2.41,26-21.82,26-16.2,0-32.4,0-48.6,0Q987.62,194.41,866.16,194.84Z" style="fill:url(#g)"/><path d="M1063.31,726.43c-5.32-20.61,6.29-33.06,22-42.12,8-4.61,11.89-8.5,12.05-18.59.53-33.34,19.64-59.32,48.89-69.27,30.35-10.32,61-1.1,82.43,26,5,6.34,9.2,8.9,17.47,7.51,17.19-2.88,31.88,2.73,42.34,17.06,3.86,5.3,8.49,6.76,14.69,7.17,19.62,1.29,36,9.4,47.71,25.49,3.86,5.3,6.61,7.07,14,4.47,29.41-10.41,45.84-3.83,63.09,23.33,4.84,14.18.39,18.64-15,18.59C1296.38,725.67,1179.85,726.19,1063.31,726.43Z" style="fill:url(#h)"/></svg>