<svg id="Layer_1" data-name="Layer 1" xmlns="http://www.w3.org/2000/svg" viewBox="0 0 557.7 315.15"><defs><style>.cls-1{fill:#c1c0c0;}.cls-2{fill:#b4b4b4;}.cls-3{fill:#c4c4c5;}.cls-4{fill:#e1e1e2;}.cls-5{fill:#b9b9b9;}.cls-6{fill:#cdcdcd;}.cls-7{fill:#e9e9eb;}.cls-8{fill:#c7c7c7;}.cls-9{fill:#d4d5d7;}.cls-10{fill:#9d9d9d;}.cls-11{fill:#acacac;}.cls-12{fill:#d9dadc;}.cls-13{fill:#eeeff0;}.cls-14{fill:#d1d0d1;}.cls-15{fill:#969795;}.cls-16{fill:#8a8d8e;}</style></defs><title>wow</title><path class="cls-1" d="M616.54,186.34v44.48c-.76,0-1.59.06-2.11-.63-3.21-4.28-7.85-7.25-10.7-11.88-1.23-2-2.87-3-4.2.09l-2.61,1.31a1.22,1.22,0,0,0-1.31,1.3h0c-1.51.23-2.77.72-2.62,2.61h0a1.23,1.23,0,0,0-1.31,1.3H591a2,2,0,0,0-2,1.31c-3.84,2.74-7.62,5.58-11.54,8.2-2.89,1.92-5,5-8.36,6.09a3.68,3.68,0,0,0-2.85,2.67,3.45,3.45,0,0,0,1.1,3.85c3.7,2.87,5.81,7.07,8.75,10.57,3.64,4.32,7,8.92,10.68,13.19,3.22,3.72,3.23,3.71,7.45,1.22l1.35-.77c2.45-1.39,3.93-4.34,7.17-4.45-1.34,2-1.6,4.93-4.73,5.56-.79.16-1.06,1.31-1.13,2.21-.25,2.87-2.07,3.18-4.14,2.19-2.28-1.09-4.09-.09-4.8,1.57a15.81,15.81,0,0,0-1.55,4.17,2.08,2.08,0,0,0-1.92.85c-3.89,5.64-6.77,12-11.81,16.82-1.16-.5-2.11-1.12-2-2.63.47-5.12-.91-10.17-.66-15.29a21.57,21.57,0,0,0-.85-5.72c-.92-4.16-2.09-8.43-2.21-12.59-.16-5.68-1.7-11.17-1.56-16.83a4,4,0,0,0-1.34-2.91q-6.54-6.29-13.14-12.51c-3.59-3.37-8.61-5.12-11.14-9.74a2.13,2.13,0,0,0-1.65-.86c-1.9.09-2.61-1.11-3.39-2.52a8.15,8.15,0,0,0-2.31-2.7c-2.37-1.66-3.37-4.09-4.27-6.65a212.54,212.54,0,0,1,.9-24.76c1-11.59,1.45-23.17,1.71-34.78l1.32-3.26H570.1c-.28,4.15-.48,8.29-1,12.45-.89,7.36-1.46,14.8-2.24,22.2-.08.76-.07,1.59.9,1.84a1.32,1.32,0,0,0,1.45-.45,66,66,0,0,1,12.55-11.7c3.39-2.45,7.39-4.47,9.71-8.32.19-.31,1-.24,1.52-.35.41.13,1,.13,1.21.41,3.78,4,7.55,8.07,11.26,12.17S612.41,182.88,616.54,186.34Z" transform="translate(-59.16 -146.12)"/><path class="cls-2" d="M422.26,146.44h17c.58,2.11,2.34,3.35,3.81,4.66,7,6.24,14.14,12.36,20.84,19,2.67,2.63,5.3,5.37,8.69,7.15a2.2,2.2,0,0,1,.06,2.61c-.25,2-2.95.78-3.33,2.58-8.64,4.72-16.78,10.24-25,15.62-6.21,4.07-12.24,8.4-18.82,11.89-1.64-.93-3.46-1.39-5.13-2.39-2.44-1.46-4.34-3.51-6.72-5-5.21-3.32-10.13-7.1-15.21-10.63-5.54-3.86-11.34-7.32-16.68-11.51-2.43-1.91-5.13-3.48-7.28-5.77q0-.33,0-.65a36.75,36.75,0,0,0,3.53-1.65c12.31-7.36,24.91-14.21,37.41-21.23C417.82,149.72,420.47,148.68,422.26,146.44Z" transform="translate(-59.16 -146.12)"/><path class="cls-3" d="M316.94,146.44h7.2c0,4.91.08,4.72,4.69,6.1,2.51.75,6.08.37,6.51,4.41a1.43,1.43,0,0,0,.84.93,63,63,0,0,1,12.23,5.64c2.46,1.5,5.68,1.86,7.55,3.67s5.43,2.15,6.23,5.36c.07.27.72.49,1.13.55,3.5.57,6.89,2,10.54,1.46a3.82,3.82,0,0,0-.51,2.16c2.12,14.35,2.73,28.81,3.13,43.28,0,.86.13,1.72.2,2.59.45,6,1.68,12,1.76,18v.67l-1.29,0c-1.27-.85-3.1-1.06-3.37-3.07a1.79,1.79,0,0,0-1.69-1.35c-3.57-.43-6-3.18-9.2-4.42-1.55-.6-4-.4-4.61-2.06-1.36-3.44-5-4.07-7.36-5-5.17-2.1-9.21-6.4-14.67-7.46-3.33-.64-5-3.58-8.18-4.53-2.2-.65-4.15-3-6.78-3.69-.64-.17-.83-.82-.81-1.58.12-5.63,1.41-11.11,2-16.67a61.74,61.74,0,0,0-.27-18.18c-.28-1.48-1.23-1.67-2.49-2-2.77-.78-3.56,1.91-5.41,2.69-.67-.52-.59-1.26-.59-2,.51-.1,1.06-.19,1.13-.84.1-.84-.51-1-1.15-1.12l0-2.61a6,6,0,0,0,7,1.24c2-.81,1.85-2.7,1.8-4.11,0-1.26.11-3.67-2-3.52-4.13.29-5.68-.8-3.57-4.86a1.08,1.08,0,0,0,0-.64c-.15-.77.43-2.05-.83-2.08-1.06,0-1.11,1.15-1.1,2,0,1.47.11,3-2.05,2.84-1.14-2.06-.24-4.47-1.15-6.57C315.7,151.57,316.19,151.07,316.94,146.44Z" transform="translate(-59.16 -146.12)"/><path class="cls-4" d="M77.52,146.44h53.64c-.17,2.56.36,5.16-.46,7.7-.3.93.26,1.66,1.2.91,3.29-2.59,7-4.78,9.07-8.62h29.44a80.88,80.88,0,0,0,.11,9.4c1.12,9.06.58,18.26,2.51,27.24l-.72,1.22-1.8.21c-1-1.28-1.55-2.92-3-3.81-6-3.68-12.06-7.14-17.88-11-3.38-2.27-7.25-3.65-10.31-6.59-1.74-1.68-4.57-2.33-7-3.16-1.75-.6-.71,2.5-2.48,2.23,0-.65,0-1.3,0-2,0-3.64,0-3.53-3.38-2.31s-5.13,5.41-9.4,4.67c-5.73,4.41-12.68,6.47-19,9.77-4.17,2.18-8.58,3.89-12.78,6s-9.07,3.5-12.37,7.32a3.18,3.18,0,0,0-3.36,2.1c-1.5,3.41-3.89,6.31-5.33,9.8-1,2.43-2.42,5-5,6.44V176.53a17.22,17.22,0,0,1,5.44,3.36c1.38,1.29,2.6,2.91,4.68,3.4,1.19.28,2.29.09,2.16-1.06-.3-2.61,1.09-4.77,1.57-7.15.82-4,1.11-8.17,2.12-12.06A86.05,86.05,0,0,0,77.52,146.44Z" transform="translate(-59.16 -146.12)"/><path class="cls-5" d="M229.28,146.44h19.62a3.79,3.79,0,0,1,0,1.3c-1.37,3.46-.63,8-5.31,9.79-1.71.66-1.31,2.41-.34,3.61,1.41,1.73,1.23,3.67.94,5.59-.22,1.49-1.08,2.93-1.1,4.39-.09,8-2.06,15.93-1.39,24,.12,1.42,0,3-1.58,3.6-2,.74-1.73,2.31-1.63,3.79s.84,3.06.16,4.77c-.4,1,.13,2.09,1.58,1.18a3.66,3.66,0,0,1,2.18-.49c-.1,1.31-1.33,1.2-2.09,1.68-3.48,2.23-7.55,3.57-10.38,6.8-2.24.35-3,2.25-4,3.86-1.33-.11-2.15.77-3.08,1.51-2.08,1.66-4,3.61-6.57,4.51a2.09,2.09,0,0,0-2.06-.71c-5.84.52-11.64-.12-17.41-.79-2.22-.26-5.07-.41-6-3.44a1.35,1.35,0,0,0-1.85-.9c-1.45.64-2.76-.18-4.14-.12a10.37,10.37,0,0,0-.17-3.22c-2-5.14-4-10.27-5.71-15.52-1.8-5.51-4-10.87-5.26-16.57,2.31-.39,3.87,1.19,5.54,2.28,4,2.6,8.66,3.87,12.79,6.22,1.17,3.17,4.42,4,6.89,4.81,4.86,1.57,8.81,4.75,13.59,6.49,4.23,1.54,8,4.54,12.22,6.36,4.79,2,5.74,1.45,5.26-3.49a8.09,8.09,0,0,0,0-1.3c-1-3.84.17-7.95-.94-11.62-1.48-4.91-1.39-10-2.11-14.91s.26-10.15.44-15.24c.06-1.56.62-2.47,2.29-2.51,1,0,2.57.21,2.61-1.22s-.65-3.44-2.13-3.7c-2.72-.48-4.43-2.48-6.69-3.58l0-2C225,149.5,227.83,148.77,229.28,146.44Z" transform="translate(-59.16 -146.12)"/><path class="cls-6" d="M472.67,179.82a2.2,2.2,0,0,0-.06-2.61,15.08,15.08,0,0,0-1.94-8.68c-3.66-7-3.88-14.64-5.24-22.08h12.43a77.23,77.23,0,0,1-.16,8.44c-.86,6.91-3.19,13.6-3.07,20.67,0,1.35.38,3,1.79,2.05,1.81-1.15,4.42-1.29,5.37-3.68h2a1.23,1.23,0,0,0,1.32-1.3,12.29,12.29,0,0,0,4.12-1.86c4.27-2.41,8.45-5,12.87-7.13,7.29-3.47,14.51-7,21.46-11.18,2.09-1.25,4.52-2.85,7.33-2.75-.26,11.61-.75,23.18-1.71,34.78a212.52,212.52,0,0,0-.9,24.76c-1,.11-1.25.63-.88,1.57.45,1.12-.08,1.86-1.08,2.36.1-1.48,0-2.95-1.58-3.6a25.27,25.27,0,0,0-3.45-1.53c-2.78-.63-3.84-3.85-6.73-4-2.72-2.24-4.86-5.47-9-5.25a2.66,2.66,0,0,1-2-.89c-6.35-6.15-14.67-9.21-22.1-13.62-1.94-1.15-4-3.23-6.77-3.14C474.51,179.85,473.62,179.79,472.67,179.82Z" transform="translate(-59.16 -146.12)"/><path class="cls-2" d="M242.41,207.95a3.66,3.66,0,0,0-2.18.49c-1.45.91-2-.18-1.58-1.18.68-1.71-.06-3.19-.16-4.77s-.36-3.05,1.63-3.79c1.61-.6,1.7-2.17,1.58-3.6-.67-8.06,1.31-16,1.39-24,0-1.47.88-2.9,1.1-4.39.28-1.92.47-3.85-.94-5.59-1-1.19-1.38-2.95.34-3.61,4.68-1.8,3.94-6.33,5.31-9.79a3.79,3.79,0,0,0,0-1.3h26.17c2.22,11.68,4.91,23.27,6.73,35,.46,3-.71,4-2.75,5.23-2.33,1.44-5.31,2-6.68,4.83-2.9.34-5,2.11-7.15,3.88-1.86.31-3.7.68-4.6,2.66C254.39,201.08,248.34,204.4,242.41,207.95Z" transform="translate(-59.16 -146.12)"/><path class="cls-7" d="M311.78,151.68c.92,2.1,0,4.51,1.15,6.57-.76,3.12-.14,6.13.71,9.12l0,2.61q0,1,0,2c0,.72-.07,1.46.59,2a84,84,0,0,0,.22,8.48c1.07,8.7,2.29,17.38,2.43,26.17l-1.26,0-.68.61-1.3.08a2,2,0,0,0-2.38-1.27c-6.47,1.27-13,.22-19.5.59-4.1.23-8.49-.26-12.22,1.07s-5.8.5-8.11-1.75a3.56,3.56,0,0,0-3.8-1c-4.14,1-7.76,3.22-11.67,4.75-4.15,1.62-8,3.67-12,5.62-5.11,2.51-5.83,5.57-5,10.51.6,3.71-.57,7.79.38,11.35,1.58,6,1,11.88.8,17.79-.08,2.31.94,1.91,2.2,2-2.33,2.34-3.25,5.74-5.88,7.86a3.34,3.34,0,0,1-1.28-2.88c.36-4.26-.67-8.44-.68-12.68,0-4.56.91-9.06.7-13.66-.22-4.79.09-9.6-.09-14.39-.16-4.28,1.74-7.3,5.49-8.73s7.25-2.87,10.28-5.45a2.66,2.66,0,0,1,1.21-.42c6.25-1.16,11.5-4.6,16.93-7.55,1.57-.85,2.8-1.25,4.14-.23,1.52,1.16,3.17,1.17,4.93,1.24,5.55.21,10.86-2,16.45-1.47a9,9,0,0,0,3.18-.6c3.1-.87,4.25-3.54,2.69-6.29a9.56,9.56,0,0,1-1.21-3.33,91.84,91.84,0,0,1-1.34-11.29c-.07-2,.23-5-1.28-5.79-3.78-1.86-1.61-4.63-1.78-7-.09-1.33,1.41-2.05,1.88-3.34a48.74,48.74,0,0,1,6.09-12.06c1-1.33,2.68-2.41,2.37-4.47h6.54Z" transform="translate(-59.16 -146.12)"/><path class="cls-8" d="M616.54,325.68v15c-5.54,1.89-11.09,3.77-16.63,5.68q-11.64,4-23.27,8.06c.87-3.51.61-7.09.67-10.65,0-2-.51-3.41-2.69-3.76-1.61-.26-2.7-1.27-2.51-2.87,1.36-11.12-2.73-22-1.31-33.12,1.21.46,2.45.84,3.61,1.38,5.36,2.47,10.41,5.57,15.71,8.1,8,3.82,16.09,7.47,23.93,11.63A5.58,5.58,0,0,0,616.54,325.68Z" transform="translate(-59.16 -146.12)"/><path class="cls-4" d="M430.76,461.09h-9.81l-.73-.7c-4.79-3.34-9.72-6.47-14.42-10-2.5-1.85-4.78-4.33-7.52-5.45-4-1.64-6.87-4.73-10.38-6.95-1.53-1-3.65-1.61-4.25-3.76l-.36-3.2c1.83.65,3.65,1,5-.19a10.87,10.87,0,0,1,6.62-2.33c5.21-.36,10.14-1.29,14.4-4.52,1.89-1.43,4.55-.33,6.39-2,4.12-3.79,9.1-4.1,14.3-3.42-.19,14,1.24,27.88,2,41.81A1.5,1.5,0,0,0,430.76,461.09Z" transform="translate(-59.16 -146.12)"/><path class="cls-4" d="M305.16,146.44c.31,2.06-1.41,3.14-2.37,4.47A48.74,48.74,0,0,0,296.7,163c-.47,1.28-2,2-1.88,3.34.16,2.36-2,5.12,1.78,7,1.51.75,1.22,3.8,1.28,5.79a91.84,91.84,0,0,0,1.34,11.29,9.56,9.56,0,0,0,1.21,3.33c1.56,2.75.42,5.42-2.69,6.29a9,9,0,0,1-3.18.6c-5.59-.57-10.9,1.69-16.45,1.47-1.76-.07-3.41-.08-4.93-1.24-1.34-1-2.58-.62-4.14.23-5.43,3-10.69,6.39-16.93,7.55a2.66,2.66,0,0,0-1.21.42c-3,2.58-6.59,4-10.28,5.45s-5.65,4.45-5.49,8.73c.18,4.79-.13,9.6.09,14.39.21,4.59-.71,9.1-.7,13.66,0,4.24,1,8.41.68,12.68a3.34,3.34,0,0,0,1.28,2.88l-.66,2.61c-1.27.47-1.67,1.82-2.61,2.62-.54-.1-1.29-.28-1.14-.89.52-2.18-.23-4.28-.22-6.43.09-14.24,0-28.48.08-42.72,0-2.18-.29-4.08-2-5.57,2.83-3.23,6.89-4.57,10.38-6.8.76-.49,2-.38,2.09-1.68,5.93-3.55,12-6.87,18.21-9.88,2.88,1.45,3.92-.29,4.59-2.66,2.12-1.78,4.25-3.54,7.15-3.88a41.32,41.32,0,0,1,9.94-1.33c4.64,0,6.08-1.25,5-5.28-1.59-6.18,2.56-10.87,3.29-16.4.2-1.52.69-2.56-.37-4.1-1.92-2.78-1.2-7.33-5.72-8.38.09-3.4-3.07-6-2.29-9.6Z" transform="translate(-59.16 -146.12)"/><path class="cls-9" d="M173,183.08c-1.93-9-1.38-18.18-2.51-27.24a80.88,80.88,0,0,1-.11-9.4h51.68q0,2.6,0,5.19c-3.33,2.84-7.21,4.82-10.9,7.11-9.71,6-19.24,12.38-28.76,18.72A83.69,83.69,0,0,1,173,183.08Z" transform="translate(-59.16 -146.12)"/><path class="cls-6" d="M59.2,204c2.63-1.4,4-4,5-6.44,1.44-3.49,3.83-6.38,5.33-9.8a3.18,3.18,0,0,1,3.36-2.1v.67a21.2,21.2,0,0,0,2.88,10.1c2.78,5.28,4.27,11,6.92,16.33,1.47,2.93,2.22,6.22,3.76,9.11a60.64,60.64,0,0,1,5.76,15.27c.78,3.51,1,6.71,4.28,8.75l-.68,1.3c-1.92-.55-3.23,1.64-5.54.8-3.64-1.32-6.19-4.14-9-6.3-4.1-3.16-7.79-6.74-12.77-8.57a2.51,2.51,0,0,1-1.2-1.07c-1.79-3.2-4.92-3.92-8.14-4.51Z" transform="translate(-59.16 -146.12)"/><path class="cls-7" d="M59.2,317.17v-51h1.3c2.55-.32,5.32-1.62,7.6-.21,2.45,1.5,4.88,1.6,7.46,1.51,2.1-.07,3.91,0,4.12,2.81a2.72,2.72,0,0,0,2.44,2.32c1.1.21,2.11.4,2.67,1.54a1.59,1.59,0,0,0,1.82,1c1-.22,1.33-1,1.35-2a2.84,2.84,0,0,1,2.63-3.13c-.33,5-2.44,9.45-4.07,14-2.16,6-5.57,11.57-5.1,18.29l-.48,1.1c-.63.21-.77.74-.87,1.3-3.71.71-6.58,2.92-9.45,5.21A62.8,62.8,0,0,1,59.2,317.17Z" transform="translate(-59.16 -146.12)"/><path class="cls-4" d="M199.84,461.09H176.29c.28-4.48-3-8.38-2-13,.56-2.56-.9-3.43-3.4-3.37s-4.81.5-7.13-.37c-5.33-2-10.62-1-15.56,1a63.76,63.76,0,0,1-20.34,4.68c.08-.93.8-1.1,1.5-1.46,10.19-5.19,20.09-11,30.59-15.55.85,1,2,.67,3.06.65,4.25,0,8.08-2.21,12.33-2.45,2.52-.15,4.68-.3,4.9,3,0,.67.17,1.56.81,1.65,3,.44,5,3.31,8.35,3.21,2.3-.07,5.34,0,5.66,3.8.14,1.66,1.75,1.79,3.27,2,3.12.38,6.93-.17,7.52,4.6.09.72,1.09,1.3,1.62,2,2.16,2.8,4.47,5.52,5.49,9-1.19,0-2.39-.06-3.57.05C206.21,460.75,202.94,459.68,199.84,461.09Z" transform="translate(-59.16 -146.12)"/><path class="cls-10" d="M576.64,354.46q11.63-4,23.27-8.06c5.54-1.91,11.09-3.79,16.63-5.68v13.08c-.83.09-1.73-.22-2.42.59-4.77,5.58-10.16,10.55-15.38,15.69-2.13,2.1-8.21,3.76-10.46,1.93s-5.21-1.88-7.91-2.56c-4.27-1.09-8.89-1.26-12.72-3.49a11.59,11.59,0,0,0-6.71-1.69c-1.09.82-2.16-2.74-3.26,0l-1.3-.66a2.75,2.75,0,0,0-.17-.6c.24-1.29,1.3-1.57,2.33-1.94Q567.59,357.78,576.64,354.46Z" transform="translate(-59.16 -146.12)"/><path class="cls-11" d="M616.54,364.93v55.6a3.39,3.39,0,0,1-2.56-3.26c-.14-3-2.5-4.48-4-6.56-1.24-2.56-4.11-3.4-5.76-5.5-2.57-3.25-6.18-5.34-9.16-8.12-1.59-1.48-2.5-3.64-4.65-4.65a15.05,15.05,0,0,1-5.93-5.33,22.88,22.88,0,0,1,4.61-4.49c2.61-.06,3.9-2.28,5.83-3.46,6.45-3.94,12.2-8.84,18.42-13.09A4.49,4.49,0,0,1,616.54,364.93Z" transform="translate(-59.16 -146.12)"/><path class="cls-12" d="M616.54,325.68a5.58,5.58,0,0,1-2.49-.49c-7.84-4.17-15.93-7.81-23.93-11.63-5.3-2.53-10.35-5.63-15.71-8.1-1.17-.54-2.41-.93-3.61-1.38l0,0v-1.31l1.28,0c.78.89,1.46.32,1.85-.31,1.25-2,3.33-3,5.17-4.29,2.29-1.64,4.91-2.58,7.24-3.92a27.39,27.39,0,0,1,9.92-3.37c3.54-.55,5.62,1.08,7.47,3.67a13.14,13.14,0,0,0,4,3.68c3.19,1.91,6.06,4.3,6.18,8.48.06,2,1.28,1.94,2.64,1.92Z" transform="translate(-59.16 -146.12)"/><path class="cls-8" d="M373.85,174.57c-3.66.55-7-.89-10.54-1.46-.41-.07-1.07-.29-1.13-.55-.79-3.22-4.25-3.45-6.23-5.36s-5.09-2.17-7.55-3.67a63,63,0,0,0-12.23-5.64,1.43,1.43,0,0,1-.84-.93c-.43-4-4-3.67-6.51-4.41-4.61-1.38-4.67-1.19-4.69-6.1h48.41c.06,8.43-.3,16.87.64,25.28.11,1,0,2,1.34,2.2q0,.33,0,.65Z" transform="translate(-59.16 -146.12)"/><path class="cls-1" d="M59.2,391.09V368.85c1.32-1.52.47-4.13,2.63-5.23h.6q0,.93,0,1.85c1.43,2,2.76,4.09,4.31,6,9.07,11.21,18.08,22.47,26.62,34.1,2,2.77,3.45,6.32,7,7.77l-3.24,14.39L97.13,429a1.31,1.31,0,0,0-.6,1.32l-1.32,5.25c-1.44-.22-1.4-1.1-1-2.15a2.76,2.76,0,0,0-.62-3.32c-2.1-1.47-2.51-3.95-3.89-5.68-2.45-3.06-1.37-4.73,1.16-6.57,1.23-.89,2.28-2.22.7-3.45-2.31-1.8-4.08-4.14-6.69-5.67-5.21-3-10.42-6.11-14.91-10.3-2.66-2.48-6.25-3.9-8.67-6.79A2.54,2.54,0,0,0,59.2,391.09Z" transform="translate(-59.16 -146.12)"/><path class="cls-13" d="M199.84,461.09c3.1-1.41,6.37-.33,9.54-.64,1.18-.11,2.38,0,3.57-.05l9.42,0c5.34,0,5.28,0,6.32-5.22.28-1.37,0-3.16,1.7-3.92,2.63-1.21,4.85-3.07,7.5-4.34,2-.94,4.62-1.76,5.8-4.16a6.53,6.53,0,0,0,1.87-.41c7.54-4.27,15.23-8.28,22.29-13.35-.58,2.71-1,5.45-1.75,8.12-1.8,6.76-3.62,13.52-5.64,20.22-.75,2.47-.05,3.07,2.33,3.06,15.44-.07,30.88-.07,46.33-.08l16.37,0H381l39.22,0,.73.7Z" transform="translate(-59.16 -146.12)"/><path class="cls-9" d="M59.2,460.43V410.72c1.58.13,3.61-.64,4.52,1.07,1.88,3.55,5.51,4,8.62,4.68,3.36.75,4.58,3.38,5.91,5.54,1.18,1.91-1.92,2.58-3,3.88-.35.41-.66,1-1.11,1.15-4.66,1.54-6.25,4.42-4.53,9.2.45,1.27.64,2.43,1.92,3.13,3.25,1.78,3.72,6.67,8.09,7.31.26,0,.31,1.17.55,1.77,1.55,4-.25,8,0,11.93Z" transform="translate(-59.16 -146.12)"/><path class="cls-5" d="M602.81,266.81c-3.24.11-4.72,3.06-7.17,4.45l-1.35.77c.26-2.26-1.68-5.59,2.86-5.77a1.26,1.26,0,0,0,.87-.87c.1-2.9,1-6-.54-8.6a10.66,10.66,0,0,1-1.27-4.56c-.91-7,3.81-13.37,2.07-20.42a.45.45,0,0,1,.06-.32c2.65-4.17,1.58-8.66,1.18-13.1,1.33-3.05,3-2.09,4.2-.09,2.85,4.63,7.49,7.6,10.7,11.88.52.7,1.35.61,2.11.63V258.3c-.65.05-1.48-.13-1.91.2C610.83,261.47,606.26,263.35,602.81,266.81Z" transform="translate(-59.16 -146.12)"/><path class="cls-6" d="M374.52,173.93c-1.34-.19-1.23-1.21-1.34-2.2-.94-8.41-.58-16.85-.64-25.28h49.72c-1.78,2.24-4.43,3.28-6.79,4.61-12.5,7-25.1,13.87-37.41,21.23A36.75,36.75,0,0,1,374.52,173.93Z" transform="translate(-59.16 -146.12)"/><path class="cls-12" d="M60.5,266.14H59.2v-38.6c3.22.59,6.35,1.32,8.14,4.51a2.51,2.51,0,0,0,1.2,1.07c5,1.82,8.67,5.4,12.77,8.57,2.8,2.16,5.35,5,9,6.3,2.31.84,3.61-1.35,5.54-.8.76,3.4-2.17,5.46-3.08,8.27-.4,1.23-2.09,1.32-2.85,0-1.54-2.75-4.07-2-6-1.39a100.14,100.14,0,0,0-11.2,4.75,49.2,49.2,0,0,0-7.14,4.14C63.91,264.07,60.84,263.12,60.5,266.14Z" transform="translate(-59.16 -146.12)"/><path class="cls-7" d="M127.86,449.95a63.75,63.75,0,0,0,20.34-4.68c4.94-1.94,10.23-2.95,15.56-1,2.32.87,4.76.42,7.13.37s4,.82,3.4,3.37c-1,4.65,2.29,8.55,2,13H132.47l0-.7c-.74-2.4-3-3.48-4.51-5.22-1.27-1.46-3.28-2.69-2-5.16Z" transform="translate(-59.16 -146.12)"/><path class="cls-4" d="M95.21,435.6l1.32-5.25c.82-.16,1.57-.35.6-1.32l.06-1.29a3,3,0,0,0,3.26-2.17c.63-2,1.86-2.46,3.86-2.5,2.64-.05,5.66.25,6.67-3.46a4,4,0,0,1,2.63-2.28c.76-.24,1.56-.5,1.69-1.34.8-4.92,5.4-7.53,7.18-11.85a2.27,2.27,0,0,1,2.14-1.27q0,15.7,0,31.4c-4.28.1-8,2.37-12,3.42-1.77.46-3.73,1.64-5.74,2.25-1.48.45-3.73.22-4.26,1.8-1,2.91-3.48,4.64-4.85,7.34-2,3.92-4,7.53-3.88,12H91.25l-.69-.7c-.28-3.14,1.89-5.92,1.35-9.1C92.68,446,95.37,441.09,95.21,435.6Z" transform="translate(-59.16 -146.12)"/><path class="cls-14" d="M91.92,451.28c.54,3.18-1.63,6-1.35,9.11H80.14c-.24-4,1.56-7.95,0-11.93-.23-.59-.29-1.73-.55-1.77-4.37-.63-4.84-5.53-8.09-7.31-1.29-.71-1.47-1.86-1.92-3.13-1.71-4.78-.12-7.66,4.53-9.2.45-.15.76-.75,1.11-1.15,1.11-1.3,4.2-2,3-3.88-1.33-2.16-2.54-4.8-5.91-5.54-3.11-.69-6.74-1.13-8.62-4.68-.91-1.71-2.95-.93-4.52-1.07V400.25c2.6,0,5.36-.52,6.28,3.06a2.42,2.42,0,0,0,1.81,1.21c2.05.19,3.08,1.92,4.63,2.74,3.31,1.76,5.49,4.84,8.7,6.69C87,417.62,87,418.57,82,423.53c-.39.38-.76.78-1.14,1.17-.8.82-1,1.8-.16,2.59,2.37,2.14,1.44,6.59,5.38,7.64.25.07.48.74.49,1.14a17.83,17.83,0,0,0,3.55,10.59,3.85,3.85,0,0,1,.75,3.39C90.62,451,91.21,451.16,91.92,451.28Z" transform="translate(-59.16 -146.12)"/><path class="cls-2" d="M593,162.13c-.52.11-1.33,0-1.52.35-2.32,3.84-6.32,5.87-9.71,8.32a66,66,0,0,0-12.55,11.7,1.32,1.32,0,0,1-1.45.45c-1-.26-1-1.08-.9-1.84.78-7.4,1.34-14.85,2.24-22.2.51-4.16.71-8.3,1-12.45h16.35c1.59,4.86,3.46,9.58,6.55,13.73Q593,161.15,593,162.13Z" transform="translate(-59.16 -146.12)"/><path class="cls-13" d="M61.83,363.63c-2.16,1.09-1.31,3.71-2.63,5.23V317.17A62.8,62.8,0,0,0,70.64,310c2.86-2.29,5.73-4.5,9.45-5.21a4.25,4.25,0,0,1-.77,3.1c-2.69,3.73-2.69,8.34-4.23,12.45-2.63,7.07-4.55,14.41-6.69,21.65S63.27,356.18,61.83,363.63Z" transform="translate(-59.16 -146.12)"/><path class="cls-12" d="M483.75,173.91h-2c-.42-.07-1.13-.38-.93-.62,1.67-2,1.85-5.26,5.07-5.91,1.29-.26,1.51-1.2,1.78-2.36.75-3.28,0-7.32,4.3-9a1.43,1.43,0,0,0,.71-1c.23-2.91,1.74-5.6,1.49-8.59h37.94l-1.32,3.26c-2.81-.1-5.24,1.5-7.33,2.75-6.95,4.17-14.16,7.71-21.46,11.18-4.42,2.1-8.6,4.72-12.87,7.13a12.29,12.29,0,0,1-4.12,1.86A1.22,1.22,0,0,0,483.75,173.91Z" transform="translate(-59.16 -146.12)"/><path class="cls-7" d="M93.87,461.09c-.1-4.48,1.9-8.09,3.88-12,1.37-2.71,3.89-4.43,4.85-7.34.52-1.58,2.77-1.36,4.26-1.8,2-.61,4-1.78,5.74-2.25,4-1.05,7.75-3.32,12-3.42q0,7.84,0,15.67c-1.62,2.45-4,3.82-6.54,5.21s-5.3,2.4-6.59,5.28l-.67.66Zm25.67-22.66a1.21,1.21,0,0,0-1.31,1.12c-.14,1,.6,1.24,1.41,1.24.61,0,1.44.06,1.37-.85S120.28,438.7,119.54,438.43Z" transform="translate(-59.16 -146.12)"/><path class="cls-7" d="M77.52,146.44A86.05,86.05,0,0,1,75.17,163c-1,3.89-1.31,8-2.12,12.06-.48,2.38-1.87,4.54-1.57,7.15.13,1.15-1,1.34-2.16,1.06-2.08-.49-3.29-2.11-4.68-3.4a17.22,17.22,0,0,0-5.44-3.36c0-9.49,0-19,0-28.46,0-1.41.27-1.71,1.68-1.68C66.4,146.5,72,146.44,77.52,146.44Z" transform="translate(-59.16 -146.12)"/><path class="cls-11" d="M593,162.13q0-1,0-2a3.27,3.27,0,0,1,2,1c1.42,1.18,2.57,2,2.1-1.05-.22-1.45.86-2.58,2.3-3.17,5-2.05,8.19-5.87,10.61-10.5,2.18,0,5.21-.85,6.3.24s.24,4.12.24,6.3v33.36c-4.13-3.46-7.47-7.67-11.07-11.64s-7.48-8.14-11.26-12.17C594,162.26,593.41,162.26,593,162.13Z" transform="translate(-59.16 -146.12)"/><path class="cls-8" d="M91.92,451.28c-.7-.12-1.29-.33-1-1.25a3.85,3.85,0,0,0-.75-3.39,17.83,17.83,0,0,1-3.55-10.59c0-.4-.24-1.07-.49-1.14-3.94-1-3-5.5-5.38-7.64-.88-.79-.64-1.77.16-2.59.38-.39.76-.78,1.14-1.17,5-5,4.92-5.91-1.43-9.57-3.21-1.85-5.39-4.94-8.7-6.69-1.55-.82-2.58-2.56-4.63-2.74a2.42,2.42,0,0,1-1.81-1.21c-.92-3.57-3.68-3.1-6.28-3.06v-9.16a2.54,2.54,0,0,1,2.14.58c2.42,2.89,6,4.31,8.67,6.79,4.5,4.19,9.7,7.25,14.91,10.3,2.61,1.53,4.38,3.87,6.69,5.67,1.58,1.23.53,2.56-.7,3.45-2.53,1.84-3.62,3.51-1.16,6.57,1.38,1.73,1.8,4.21,3.89,5.68a2.76,2.76,0,0,1,.62,3.32c-.45,1.06-.49,1.93,1,2.15C95.37,441.09,92.68,446,91.92,451.28Z" transform="translate(-59.16 -146.12)"/><path class="cls-8" d="M602.81,266.81c3.45-3.47,8-5.34,11.82-8.31.43-.33,1.26-.15,1.91-.2v32.05a12.62,12.62,0,0,1-6.63-2,110.6,110.6,0,0,0-10.88-5.8,14.29,14.29,0,0,0-12.59-.06,15.81,15.81,0,0,1,1.55-4.17c.71-1.66,2.52-2.66,4.8-1.57,2.07,1,3.89.68,4.14-2.19.08-.9.34-2,1.13-2.21C601.21,271.75,601.47,268.86,602.81,266.81Z" transform="translate(-59.16 -146.12)"/><path class="cls-14" d="M586.45,282.5a14.29,14.29,0,0,1,12.59.06,110.6,110.6,0,0,1,10.88,5.8,12.62,12.62,0,0,0,6.63,2v18.32c-1.36,0-2.59.08-2.64-1.92-.12-4.18-3-6.57-6.18-8.48a13.14,13.14,0,0,1-4-3.68c-1.86-2.59-3.93-4.22-7.47-3.67a27.39,27.39,0,0,0-9.92,3.37c-2.32,1.34-4.95,2.28-7.24,3.92-1.84,1.32-3.92,2.25-5.17,4.29-.39.63-1.07,1.2-1.85.31l.66-2.64c5-4.83,7.92-11.18,11.81-16.82A2.08,2.08,0,0,1,586.45,282.5Z" transform="translate(-59.16 -146.12)"/><path class="cls-3" d="M465.43,146.44c1.36,7.44,1.58,15.08,5.24,22.08a15.08,15.08,0,0,1,1.94,8.68c-3.39-1.78-6-4.53-8.69-7.15-6.7-6.59-13.82-12.72-20.84-19-1.47-1.31-3.23-2.55-3.81-4.66Z" transform="translate(-59.16 -146.12)"/><path class="cls-12" d="M282.27,146.44c-.78,3.57,2.38,6.19,2.29,9.6,4.52,1,3.81,5.6,5.72,8.38,1.06,1.54.57,2.58.37,4.1-.73,5.53-4.88,10.22-3.29,16.4,1,4-.4,5.26-5,5.28a41.32,41.32,0,0,0-9.94,1.33c1.37-2.78,4.35-3.38,6.68-4.83,2-1.27,3.21-2.25,2.75-5.23-1.81-11.77-4.51-23.36-6.73-35Z" transform="translate(-59.16 -146.12)"/><path class="cls-15" d="M616.54,364.93a4.49,4.49,0,0,0-3.2,1.15c-6.22,4.25-12,9.15-18.42,13.09-1.93,1.18-3.23,3.4-5.83,3.46a4.29,4.29,0,0,0-1.59-3.6c-1.74-1.62-3.84-2.32-5.82-3.31-4.41-2.21-9.13-3.87-13.32-6.43-2.52-1.53-5.91-2-7.43-5a11.59,11.59,0,0,1,6.71,1.69c3.83,2.23,8.45,2.4,12.72,3.49,2.7.69,5.57.66,7.91,2.56s8.33.17,10.46-1.93c5.22-5.14,10.61-10.11,15.38-15.69.69-.81,1.59-.5,2.42-.59Z" transform="translate(-59.16 -146.12)"/><path class="cls-9" d="M494.21,146.44c.25,3-1.26,5.68-1.49,8.59a1.43,1.43,0,0,1-.71,1c-4.27,1.63-3.55,5.68-4.3,9-.27,1.17-.5,2.1-1.78,2.36-3.22.65-3.4,3.93-5.07,5.91-.2.24.51.55.93.62-1,2.4-3.57,2.53-5.37,3.68-1.41.9-1.77-.7-1.79-2.05-.12-7.07,2.22-13.76,3.07-20.67a77.23,77.23,0,0,0,.16-8.44Z" transform="translate(-59.16 -146.12)"/><path class="cls-10" d="M610,146.44c-2.42,4.63-5.65,8.45-10.61,10.5-1.44.59-2.52,1.72-2.3,3.17.47,3-.68,2.23-2.1,1.05a3.27,3.27,0,0,0-2-1c-3.09-4.14-5-8.87-6.55-13.73Z" transform="translate(-59.16 -146.12)"/><path class="cls-13" d="M430.76,461.09a1.5,1.5,0,0,1,1.35-.69l45.1-.05h138.1l1.23.1c-.73,1.37-2,.61-2.94.61Q522.18,461.12,430.76,461.09Z" transform="translate(-59.16 -146.12)"/><path class="cls-15" d="M610,410.71c1.49,2.08,3.85,3.56,4,6.56a3.39,3.39,0,0,0,2.56,3.26V450a3.39,3.39,0,0,1-.57,0l-.86-3.9c.49-3-1-5.64-1.19-8.51a18.76,18.76,0,0,0-.44-3.78c-.6-3.57-2.25-6.92-2.16-10.61C611.07,419,609.59,414.94,610,410.71Z" transform="translate(-59.16 -146.12)"/><path class="cls-1" d="M616,449.95a3.36,3.36,0,0,0,.57,0v7.2c-2,.45-1.08,2-1.23,3.17H603.44a2,2,0,0,1,.9-2c2.78-1.67,5.5-3.44,8.31-5,1.38-.79,2.63-1.54,2.58-3.36Z" transform="translate(-59.16 -146.12)"/><path class="cls-7" d="M141,146.44c-2.1,3.84-5.78,6-9.07,8.62-.94.74-1.5,0-1.2-.91.82-2.55.29-5.14.46-7.7Z" transform="translate(-59.16 -146.12)"/><path class="cls-8" d="M311.78,151.68l-.08-5.24h5.23C316.19,151.07,315.7,151.57,311.78,151.68Z" transform="translate(-59.16 -146.12)"/><path class="cls-4" d="M222.1,151.63l0-5.19h7.2c-1.45,2.33-4.29,3.06-5.93,5.17Z" transform="translate(-59.16 -146.12)"/><path class="cls-13" d="M80.14,460.38H90.57l.69.7c-10,0-20.08,0-30.12,0-.61,0-1.69.79-1.94-.61Z" transform="translate(-59.16 -146.12)"/><path class="cls-13" d="M110.88,461.09l.67-.66,20.9,0,0,.7Z" transform="translate(-59.16 -146.12)"/><path class="cls-15" d="M615.31,460.34c.15-1.16-.75-2.73,1.23-3.17v3.27Z" transform="translate(-59.16 -146.12)"/><path class="cls-8" d="M572.72,300.17l-.66,2.64-1.28,0A7.65,7.65,0,0,1,569,302c-10.22-8-20.35-16.09-30.68-23.94-2.33-1.77-4-4.8-7.49-4.79-.38-1.89-1.89-2.84-3.28-3.85-4.44-3.22-9-6.29-13.32-9.63-3.66-2.81-7.42-5.57-11.1-8.27s-7.42-5.41-11.29-7.88c-1.08-.69-2.16-1.53-2.24-3,1.58-2.75,4.09-4.33,6.77-5.94,8.38-5,15.38-12,23.32-17.62,1.65-.66,3.87-.31,4.59-2.61.66-.42,1-1.39,2-1.32,1-.49,1.53-1.23,1.08-2.36-.37-.94-.14-1.45.88-1.57.89,2.55,1.9,5,4.27,6.64a8.15,8.15,0,0,1,2.31,2.7c.78,1.41,1.5,2.6,3.39,2.52a2.13,2.13,0,0,1,1.65.86c2.53,4.62,7.55,6.37,11.14,9.74q6.62,6.21,13.14,12.51a4,4,0,0,1,1.34,2.91c-.14,5.66,1.4,11.16,1.56,16.83.12,4.16,1.29,8.43,2.21,12.59a21.57,21.57,0,0,1,.85,5.72c-.25,5.12,1.13,10.16.66,15.29C570.61,299.05,571.56,299.67,572.72,300.17Z" transform="translate(-59.16 -146.12)"/><path class="cls-2" d="M599.53,218.4c.4,4.44,1.47,8.94-1.18,13.1a.45.45,0,0,0-.06.32c1.74,7-3,13.44-2.07,20.42a10.66,10.66,0,0,0,1.27,4.56c1.58,2.61.64,5.71.54,8.6a1.26,1.26,0,0,1-.87.87c-4.54.17-2.6,3.51-2.86,5.77-4.22,2.49-4.22,2.49-7.45-1.22-3.71-4.28-7-8.88-10.68-13.19-2.94-3.49-5.05-7.7-8.75-10.57a3.45,3.45,0,0,1-1.1-3.85,3.68,3.68,0,0,1,2.85-2.67c3.36-1.07,5.47-4.16,8.36-6.09,3.92-2.62,7.7-5.45,11.54-8.2,1,0,1.88,0,2-1.31h.65a1.22,1.22,0,0,0,1.31-1.3h0a2.74,2.74,0,0,0,2.62-2.62h0a1.23,1.23,0,0,0,1.31-1.3Z" transform="translate(-59.16 -146.12)"/><path class="cls-5" d="M595.61,221a2.74,2.74,0,0,1-2.62,2.62C592.84,221.73,594.09,221.25,595.61,221Z" transform="translate(-59.16 -146.12)"/><path class="cls-5" d="M591,224.94c-.09,1.29-1,1.32-2,1.31A2,2,0,0,1,591,224.94Z" transform="translate(-59.16 -146.12)"/><path class="cls-5" d="M593,223.63a1.22,1.22,0,0,1-1.31,1.3A1.22,1.22,0,0,1,593,223.63Z" transform="translate(-59.16 -146.12)"/><path class="cls-5" d="M596.92,219.71a1.23,1.23,0,0,1-1.31,1.3A1.23,1.23,0,0,1,596.92,219.71Z" transform="translate(-59.16 -146.12)"/><path class="cls-5" d="M373.85,174.57h.65c2.15,2.29,4.85,3.86,7.28,5.77,5.34,4.19,11.14,7.66,16.68,11.51,5.08,3.53,10,7.32,15.21,10.63,2.38,1.51,4.28,3.56,6.72,5,1.67,1,3.5,1.46,5.13,2.39q0,.64,0,1.29c-5.71,2.13-10.3,6.2-15.45,9.27-6.52,3.88-12.8,8.28-19.07,12.62-3.57,2.47-7.76,4.08-10.61,7.55h-2c-.08-6.06-1.31-12-1.76-18-.06-.86-.17-1.72-.2-2.59-.4-14.47-1-28.93-3.13-43.28A3.82,3.82,0,0,1,373.85,174.57Z" transform="translate(-59.16 -146.12)"/><path class="cls-9" d="M472.67,179.82c.95,0,1.84,0,1.92,1.29a4.51,4.51,0,0,0,.65,2.62c-3.42,1-4.83,3.86-5.77,6.73a7.17,7.17,0,0,1-4.6,5,3.68,3.68,0,0,0-2.64,2.13,1.54,1.54,0,0,1-1.7,1.19c-3.29-.26-3.08,2.41-4.09,4.37-.89,1.72-4.76.39-4.76,3.84,0,1.92-1.52,2.21-3,2.25-1.27,0-2.68.17-3,1.41a7.37,7.37,0,0,1-2.84,3.71c-.78.65-1.89,1.62-1.08,3.09.63,1.15,1,2.44,2.76,2.31a2.25,2.25,0,0,1,1.54.34c3.22,3.07,7.15,5.13,10.79,7.6,1.63,1.11,2.8,1.93.19,3.25-1.05.53-.71,1.73-.72,2.68q0,5.88,0,11.77c0,2.5-.77,5.29,2.75,6.43.77.25,1.1,1.56,1.17,2.58-4.44,3.71-10,5.21-15,7.85-1.07-1.18-2.19-.32-3.32-.11-3.24.6-4.66-.72-5.25-3.87-.92-4.88-.51-9.76-.56-14.64,0-5.1-.26-10.21.57-15.29.3-1.84.78-3.2,2.8-3.33,1.6-.11,2.9-.71,3-2.36a4,4,0,0,0-2.1-4.11c-2.3-1.08-3.92-3-5.95-4.41-1.81-1.25-1.44-3.36.06-4.8a9.4,9.4,0,0,1,4.26-2.15,11.44,11.44,0,0,0,6.89-4.82c1.57-2.3,3.07-5.53,6.79-5.56,1.1,0,1.71-.83,2.45-1.46,1.25-1.06,2-3,4.32-2.11.9.33,1.12-.61.84-1.22-.83-1.81.27-1.95,1.61-2.61,3.17-1.58,7.19-2.42,7.75-7C469.73,180.6,472.42,181.78,472.67,179.82Z" transform="translate(-59.16 -146.12)"/><path class="cls-14" d="M469.34,182.4c-.55,4.55-4.57,5.4-7.75,7-1.34.66-2.44.8-1.61,2.61.28.62.06,1.56-.84,1.22-2.29-.85-3.07,1.06-4.32,2.11-.74.63-1.36,1.46-2.45,1.46-3.72,0-5.22,3.26-6.79,5.56a11.44,11.44,0,0,1-6.89,4.82,9.4,9.4,0,0,0-4.26,2.15c-1.5,1.43-1.88,3.55-.06,4.8,2,1.4,3.65,3.33,5.95,4.41a4,4,0,0,1,2.1,4.11c-.12,1.65-1.42,2.25-3,2.36-2,.14-2.5,1.49-2.8,3.33-.83,5.09-.62,10.19-.57,15.29,0,4.88-.35,9.76.56,14.64.59,3.15,2,4.47,5.25,3.87,1.13-.21,2.25-1.07,3.32.11a11.17,11.17,0,0,1-5.11,2.57c-1.21.27-2,.7-2.09,2a5.37,5.37,0,0,0-2.44.71c-2.55,1.13-5,2.6-7.88,2.89-1.11.11-1.79.31-2.11-1.1a38.77,38.77,0,0,1-1.33-11.19c.46-7.46.93-14.93.68-22.42,0-1,0-2,0-2.93.33-6.62-.23-13.32,1.8-19.8.26-.84-.44-1.38-1.15-1.75q0-.64,0-1.29c6.57-3.49,12.61-7.83,18.82-11.89C452.57,192.64,460.7,187.11,469.34,182.4Z" transform="translate(-59.16 -146.12)"/><path class="cls-8" d="M316.94,208.58c-.14-8.79-1.36-17.47-2.43-26.17a84,84,0,0,1-.22-8.48c1.84-.78,2.64-3.47,5.4-2.69,1.26.36,2.21.55,2.49,2a61.74,61.74,0,0,1,.27,18.18c-.59,5.56-1.88,11-2,16.67,0,.77.18,1.42.81,1.58,2.62.69,4.58,3,6.78,3.69,3.19,1,4.85,3.89,8.18,4.53,5.46,1.06,9.5,5.35,14.67,7.46,2.39,1,6,1.61,7.36,5,.66,1.65,3.05,1.45,4.61,2.06,3.2,1.24,5.63,4,9.2,4.42a1.79,1.79,0,0,1,1.69,1.35c.28,2,2.1,2.22,3.37,3.07-4.19,4.08-9.78,5.87-14.67,8.8C352,256.4,341.31,262.28,330.54,268c-2.71,1.43-5,4-8.35,4.08-2-7-1.79-14.35-2.4-21.5-.64-7.4-.53-14.94-.95-22.4C318.46,221.62,317.59,215.1,316.94,208.58Z" transform="translate(-59.16 -146.12)"/><path class="cls-4" d="M322.18,272.06c3.38-.11,5.64-2.64,8.35-4.08,10.78-5.7,21.47-11.58,31.92-17.85,4.89-2.93,10.48-4.72,14.67-8.8l1.29,0q0,1.63,0,3.26c-.44,3.08-.83,6.17-1.33,9.23-.75,4.54-.73,9.19-2,13.67a8,8,0,0,0-1.57-.41c-2.08-.12-5-1.4-5.92.93-1.32,3.27-4,3.29-6.47,4-1.71.48-3.21.89-3.57,2.76-.48,2.52-2.09,3-4.07,2.18-3.53-1.53-6.79,0-10.16.47a1.6,1.6,0,0,0-1.5,1.48c-.21,2.61-2.81,5.55,1,7.65.22.12.13.82.18,1.25-1.69-1.13-3.41-2.23-5.08-3.4-3.34-2.33-6.65-4.71-10-7.06-.72-.05-1.56.08-1.87-.83-.66-1.94-2.22-2.36-4-2.46l0-1.29Q322.17,272.37,322.18,272.06Z" transform="translate(-59.16 -146.12)"/><path class="cls-8" d="M378.43,244.56q0-1.63,0-3.26,0-.33,0-.67h2c.19.5.23,1.17.59,1.47,3.49,2.9,7,5.8,10.58,8.54,1.23.94,3.06.46,4.36,1.83,2.61,2.74,5.53,5.19,8.31,7.76.64.59,1.24,1.41,2.18,1.27,2-.29,3.29.9,4.39,2.22,1.61,1.94,3.77,3.09,5.73,4.56s4.29,3,5.07,5.71a2,2,0,0,1-2,1.31c-.54-1-2.21-.3-2.4-1.38-.46-2.67-2.33-3.08-4.5-3.3-1.18-.12-1.62-1-1.58-2.11.11-3-1.71-4-4.23-4.31a6.81,6.81,0,0,1-2.58-1.19c-3.87-2.1-5.93-6.81-10.69-7.54-4.15-.63-5.52-4.7-8.43-6.87A25.28,25.28,0,0,0,378.43,244.56Z" transform="translate(-59.16 -146.12)"/><path class="cls-8" d="M313.64,167.38c-.84-3-1.47-6-.71-9.12,2.16.12,2.07-1.36,2.05-2.84,0-.87,0-2,1.1-2,1.26,0,.69,1.32.83,2.08a1.08,1.08,0,0,1,0,.64c-2.11,4.06-.56,5.15,3.57,4.86,2.11-.15,1.95,2.27,2,3.52.05,1.41.2,3.3-1.8,4.11A6,6,0,0,1,313.64,167.38Z" transform="translate(-59.16 -146.12)"/><path class="cls-8" d="M313.7,172q0-1,0-2c.65.11,1.25.28,1.15,1.12C314.76,171.76,314.21,171.85,313.7,172Z" transform="translate(-59.16 -146.12)"/><path class="cls-11" d="M173.67,185c1.21,5.7,3.45,11.06,5.26,16.57,1.72,5.25,3.71,10.38,5.71,15.52a10.37,10.37,0,0,1,.17,3.22c-.66,2.81,1.72,4.71,2.18,7.31.65,3.7,2.64,7.15,4.06,10.72.89,2.24,1.1,5,4.22,5.53-2.43,3.31-6.38,3.78-9.81,5.22-.74-4.53-2.81-8.15-7.27-9.86-3.75-1.43-7.25-3.36-10.85-5.1a6.8,6.8,0,0,0-3.46-.74c-7.43-3.74-14.81-7.57-22.32-11.14-2.07-1-3.9-2.77-6.46-2.59l-9.81-4.58-.6-.59-.07-.1a6.9,6.9,0,0,0,1.49-.53c12.15-7.79,24.35-15.5,36.38-23.47,2.75-1.82,6.1-2.95,8-5.91l1.8-.21Z" transform="translate(-59.16 -146.12)"/><path class="cls-12" d="M72.94,186.34v-.67c3.3-3.82,8.09-5.16,12.37-7.32s8.61-3.84,12.78-6c6.31-3.3,13.25-5.36,19-9.77,4.27.74,6.07-3.47,9.4-4.67s3.34-1.33,3.38,2.31c0,.65,0,1.3,0,2l-.66,10.46c-1.23,1.38-.42,3.06-.65,4.59v5.88c-2.58,1.22-.78,3.52-1.3,5.24.45,8.84-2.35,17.35-2.64,26.12l.07.1a11.17,11.17,0,0,1-4.12-1.89c-8-5.33-16.81-9.25-25.11-14.07C88.06,194.28,80.45,190.4,72.94,186.34Z" transform="translate(-59.16 -146.12)"/><path class="cls-7" d="M129.2,172.61l.66-10.46c1.78.27.73-2.83,2.48-2.23,2.43.83,5.26,1.48,7,3.16,3.05,2.94,6.93,4.32,10.31,6.59,5.81,3.9,11.92,7.36,17.88,11,1.44.89,2,2.53,3,3.81-1.93,3-5.28,4.09-8,5.91-12,8-24.23,15.69-36.38,23.47a6.9,6.9,0,0,1-1.49.53c.29-8.77,3.09-17.28,2.64-26.12,2.56-1.22.77-3.52,1.3-5.24q0-2.94,0-5.88C131.07,176,130.86,174.4,129.2,172.61Z" transform="translate(-59.16 -146.12)"/><path class="cls-3" d="M173.67,185l-1.36-.74.72-1.22a83.68,83.68,0,0,0,9.41-5.61c9.52-6.34,19.05-12.68,28.76-18.72,3.69-2.3,7.57-4.28,10.9-7.11l1.24,0q0,1,0,2c-1.79.34-1.41,1.8-1.26,2.86.81,5.82-.5,11.62-.1,17.44.14,2.07-.57,3.84-3.23,4-1.82.09-2.59,1.36-2.6,3.12,0,1.3-.06,2.61,0,3.91.09,2-.24,3.39-2.72,3.45a2.52,2.52,0,0,0-2.5,2.86c.05,2.7-.37,5.43.28,8.1.21.85.65,1.79-.21,2.39s-1.78,0-2.66-.53c-5.24-3-10.42-6.24-16.41-7.66-4.13-2.35-8.77-3.61-12.79-6.22C177.53,186.24,176,184.66,173.67,185Z" transform="translate(-59.16 -146.12)"/><path class="cls-1" d="M192,193.54c6,1.42,11.17,4.62,16.41,7.66.88.51,1.72,1.18,2.66.53s.42-1.54.21-2.39c-.65-2.68-.23-5.4-.28-8.1a2.52,2.52,0,0,1,2.5-2.86c2.48-.06,2.81-1.49,2.72-3.45-.06-1.3,0-2.61,0-3.91,0-1.76.77-3,2.6-3.12,2.67-.13,3.37-1.9,3.23-4-.4-5.82.91-11.61.1-17.44-.15-1.06-.53-2.52,1.26-2.86,2.27,1.1,4,3.1,6.69,3.58,1.48.26,2.17,2.21,2.13,3.7s-1.56,1.19-2.61,1.22c-1.67,0-2.24,1-2.29,2.51-.18,5.09-1.16,10.28-.44,15.24s.63,10,2.11,14.91c1.11,3.67-.11,7.78.94,11.62a8.09,8.09,0,0,1,0,1.3c.48,4.93-.47,5.53-5.26,3.49-4.26-1.82-8-4.82-12.22-6.36-4.77-1.74-8.73-4.92-13.59-6.49C196.41,197.55,193.17,196.72,192,193.54Z" transform="translate(-59.16 -146.12)"/><path class="cls-12" d="M229.94,216.44c1.71,1.49,2,3.39,2,5.57-.07,14.24,0,28.48-.08,42.72,0,2.15.74,4.25.22,6.43-.15.61.6.79,1.14.89-1,2.3-2.18,1.11-3.42.19-2.66-2-4.77-4.84-8.35-5.43h0a6.62,6.62,0,0,0-5.23-4.58q0-.32,0-.65c-1.12-2-2.28-4.07-.23-6.26.25-.26.17-.83.23-1.26,1.42-10.59,1.84-21.46,8.9-30.46.43-.55,2.07-1.86.83-3.3C226.95,218.69,227.7,216.79,229.94,216.44Z" transform="translate(-59.16 -146.12)"/><path class="cls-9" d="M225.91,220.3c1.25,1.44-.39,2.75-.83,3.3-7.06,9-7.48,19.87-8.9,30.46-.06.43,0,1-.23,1.26-2,2.19-.88,4.21.23,6.26-1.67.26-2.86-.56-4-1.62-1.66-1.48-3-3.4-5.51-3.74-.78-.11-.8-.91-1.1-1.47a10.25,10.25,0,0,1-.3-8.74c1.39-3.82,2.84-7.7,2.44-11.92,2.63-2.85,6.32-4.52,8.57-7.78,2.61-.89,4.49-2.85,6.57-4.51C223.77,221.06,224.59,220.19,225.91,220.3Z" transform="translate(-59.16 -146.12)"/><path class="cls-2" d="M216.26,226.31c-2.25,3.26-5.95,4.93-8.57,7.78a37.06,37.06,0,0,0-9.83,9.16,4.43,4.43,0,0,0-2.59.66c-3.12-.53-3.33-3.29-4.22-5.53-1.42-3.56-3.41-7-4.06-10.72-.46-2.6-2.84-4.5-2.18-7.31,1.38-.07,2.69.76,4.14.12a1.35,1.35,0,0,1,1.85.9c.93,3,3.78,3.18,6,3.44,5.76.67,11.57,1.31,17.41.79A2.09,2.09,0,0,1,216.26,226.31Z" transform="translate(-59.16 -146.12)"/><path class="cls-9" d="M519.72,217.09c-7.94,5.66-14.94,12.57-23.32,17.62-2.68,1.61-5.19,3.19-6.77,5.94h-2c.33-2.33-1-4.4-1.16-6.54-.6-6.81-3.45-13-4.73-19.62,1.36-2.36-.12-4.09-1.31-5.89q0-1,0-2c.41-1.56-1-2.55-1.23-3.87a87.18,87.18,0,0,0-4-15.76c2.42.25,2.67,2.29,3.14,4,.33,1.2.46,2.34,2,2.53a2.83,2.83,0,0,1,2.71,3.07,2,2,0,0,0,2.27,2.15,116.15,116.15,0,0,0,12-.21c1.79-.2,3.92-.29,4.43.9,2.18,5,6.75,4,10.63,4.87.78.17,1.45.45,2-.31,2.9.17,4,3.39,6.73,4a25.27,25.27,0,0,1,3.45,1.53c1.55.65,1.68,2.12,1.58,3.6-1-.07-1.29.9-2,1.32C522.24,214.39,520.52,214.94,519.72,217.09Z" transform="translate(-59.16 -146.12)"/><path class="cls-14" d="M514.49,204c-.58.76-1.25.48-2,.31-3.88-.85-8.45.14-10.63-4.87-.52-1.19-2.65-1.09-4.43-.9a116.15,116.15,0,0,1-12,.21,2,2,0,0,1-2.27-2.15,2.83,2.83,0,0,0-2.71-3.07c-1.55-.19-1.68-1.33-2-2.53-.47-1.72-.72-3.76-3.14-4q0-1.63,0-3.27a4.51,4.51,0,0,1-.65-2.62c2.75-.09,4.83,2,6.77,3.14,7.43,4.41,15.74,7.47,22.1,13.62a2.66,2.66,0,0,0,2,.89C509.63,198.54,511.77,201.77,514.49,204Z" transform="translate(-59.16 -146.12)"/><path class="cls-9" d="M483.75,173.91a1.22,1.22,0,0,1,1.32-1.3A1.22,1.22,0,0,1,483.75,173.91Z" transform="translate(-59.16 -146.12)"/><path class="cls-12" d="M265.21,195.42c-.68,2.36-1.71,4.1-4.59,2.66C261.52,196.09,263.35,195.73,265.21,195.42Z" transform="translate(-59.16 -146.12)"/><path class="cls-12" d="M267.85,429c-7.06,5.07-14.75,9.08-22.29,13.35a6.52,6.52,0,0,1-1.88.41c.42-1.85,2.76-3.87-.52-5.41-.21-.1-.11-.82-.17-1.25a2.57,2.57,0,0,0-2.58-2.47c-2.26,0-2.68-1.31-2.64-3.2.07-2.94,0-5.88,0-8.82,0-2.16-.66-3.63-3.06-3.73-1.71-.07-2.21-1.09-2.18-2.61s-.54-3.18.11-4.18c2-3-.12-5-1.52-7a26.79,26.79,0,0,0-9.06-8.44c.6-1.42,2-2,3.15-2.74q18.09-11.45,36.24-22.82c2.2-1.38,2.26-2.47.12-3.66-3.4-1.89-6.83-3.71-10.24-5.58-10.11-5.53-20.16-11.18-30.36-16.55-4.68-2.46-9-5.66-14-7.55,7.71-4.87,16.21-8.18,24.25-12.42,5.17-2.72,10.68-4.91,15.81-7.65,5.9-3.15,12.05-5.81,17.85-9.15,1.21-.7,3.58-.24,3.39-2.27-.18-1.85-2.43-1.25-3.73-1.81a1.91,1.91,0,0,0-.65,0c-.19-1.71-1.08-3.08-2.78-3.12a7.54,7.54,0,0,1-5.52-3.07c-2.6-3-7.75-1.29-9.55-5.47-.06-.14-.62-.14-.94-.1-1.95.22-2.71-.92-3.12-2.58-.33-1.33-1.09-3-2.52-2.35-4.18,1.81-8.71.15-12.86,1.64.76-4.46,4-7.87,5.2-12.16.37-1.3,1.51-.89,2.39-.22,3.44,2.62,7.33,4.56,10.7,7.32,2.65,2.18,5.7,3.87,8.18,6.31.94.93,1.81.44,2.56-.28a.81.81,0,0,0-.14-1.38c-3.14-1-3.66-5.2-7.13-5.87a2.14,2.14,0,0,1-1.44-2c-.13-1.67-1.11-2.25-2.64-2.18-2,.1-2.74-.95-2.64-2.82.07-1.34-.53-2.63-1.76-2.8-2-.28-2.92-1.69-4.12-2.89l.66-2.61c2.63-2.12,3.55-5.51,5.88-7.86,3-4.61,5.86-9.28,9-13.79,1.25-1.79,2.11-4,4.11-5.18l.07,1.34c1.32,4,2.32,8.08,3.28,12.19,2,8.74,4.36,17.41,6.52,26.13,1.82,7.34,3.55,14.7,5.37,22,.3,1.23.56,2.68,2.42,2.45v1.93c-1.76,0-2.11.38-1,2,3.15,4.63,7.82,8.61,6.94,15.13a1.45,1.45,0,0,0,1.29,1.65c2.53.28,2.84,2.08,3.32,4.11a34.77,34.77,0,0,1,.54,8.09c0,1.82-.08,3.48,2.44,3.79,1.52.19,1.93,1.68,2.1,3,.25,1.93,1,3.79.74,5.79-.11,1,0,2.41,1.31,2.09,3.08-.75,6.73-.18,9.19-2.24,3.37-2.83,7.34-4.08,11.31-5.15,1.71-.46,4.57.18,4.93,3,.22,1.76.92,2.43,2.65,2.57,1.36.11,2.87.33,3.58,1.84a2.11,2.11,0,0,0,2.33,1.36l0,.67v2a6.66,6.66,0,0,0-1.3,4.58l-3.28,19c-1.57.07-3.05-.1-4-1.55a4,4,0,0,0-2.73-1.63c-1.14-.2-2.25-.42-2.3-1.81a2.51,2.51,0,0,1,2-2.9c1.56-.38,2.19-2.72,1.64-2.89-3.7-1.11-4.56-5-7.3-6.94-3.11-2.24-5-6.16-9.38-6.68-.08,0-.11-.4-.18-.6a1.86,1.86,0,0,0-2.94-.95c-2.06,1.73-4.75,1.44-6.91,2.57-6.76,3.55-13.84,6.47-20.44,10.34-2.38,1.4-2.76,2-.37,4,4.44,3.67,9.69,6,14.39,9.19,11.19,7.64,22.68,14.85,34,22.23-.11.73-.65,1.06-1.24,1.39q-23,13-45.93,25.93Z" transform="translate(-59.16 -146.12)"/><path class="cls-1" d="M255.51,241.32l-.07-1.34c13-6.77,26.07-13.5,39.07-20.32,6.44-3.38,12.79-6.91,19.18-10.38l1.3-.08.68-.61,1.26,0c.65,6.53,1.53,13,1.9,19.58.42,7.46.31,15,.95,22.4.62,7.15.44,14.47,2.4,21.5q0,.32,0,.63h-1.31c-7-3.5-14-7-21-10.5-5.08-2.52-10.21-5-15.28-7.49-8.24-4.12-16.44-8.33-24.69-12.43A7.53,7.53,0,0,0,255.51,241.32Z" transform="translate(-59.16 -146.12)"/><path class="cls-13" d="M313.69,209.28c-6.39,3.46-12.74,7-19.18,10.38-13,6.82-26,13.55-39.07,20.32-2,1.22-2.86,3.39-4.11,5.18-3.13,4.51-6,9.18-9,13.79-1.26-.06-2.28.34-2.2-2,.22-5.92.78-11.82-.8-17.79-.95-3.56.22-7.64-.38-11.35-.8-4.93-.07-8,5-10.51,4-2,7.86-4,12-5.62,3.91-1.53,7.53-3.73,11.67-4.75a3.56,3.56,0,0,1,3.8,1c2.31,2.24,4.51,3,8.11,1.75s8.11-.84,12.22-1.07c6.49-.36,13,.68,19.5-.59A2,2,0,0,1,313.69,209.28Z" transform="translate(-59.16 -146.12)"/><path class="cls-13" d="M315.67,208.59l-.68.61Z" transform="translate(-59.16 -146.12)"/><path class="cls-3" d="M576.64,354.46q-9,3.3-18.1,6.59c-1,.37-2.08.65-2.32,1.94-2.47-1.34-4.85-2.87-7.61-3.62-.86-.23-2-.32-2.07-1.63,3.48,1,6.5.63,8.93-2.47,1.5-1.92,1.22-3.93-1.13-4.7-1.39-.45-2.33-1.12-2.52-2.6a102.89,102.89,0,0,1-.48-21.11c.17-2.28-.83-5.75,1.62-6.92a6.14,6.14,0,0,0,3.75-5.37c.28-2.37.92-4.19,3.35-5,.16-.05.15-.6.22-.92a49.11,49.11,0,0,1,10.49-4.57l0,0c-1.41,11.11,2.67,22,1.31,33.12-.2,1.6.89,2.61,2.51,2.87,2.18.35,2.72,1.79,2.69,3.76C577.25,347.38,577.51,351,576.64,354.46Z" transform="translate(-59.16 -146.12)"/><path class="cls-8" d="M477.21,460.35l-45.1.05c-.81-13.93-2.24-27.83-2-41.81-.17-2.85-.94-5.65-.61-8.53a3.44,3.44,0,0,0,2.89-1.21c.78-.78,2-.71,2,.29,0,3.09,2.34,5.86.86,9.15-1.33,3-.54,4.83,2.52,5.88,1.72.59,2.84,1,3,3.14s1.8,2.46,3.63,2.36c2-.11,2.16-1.44,2.14-3s-.08-2.84,0-4.24.62-2.55,2.35-2.57c1.44,0,2.64.21,2.83,1.95s1.39,2,2.82,2c3.58,0,7.18,0,10.75.28,1.69.11,1.46-.91,1.46-1.83,0-7.82,1.08-15.6.68-23.44a25.48,25.48,0,0,1,4.53-15.57c1.83-2.73,2.29-5.6,2.84-8.49.46-2.44-.36-4.79-3.46-5.26a3.23,3.23,0,0,1,1-4c3.24-2.94,7.2-5.17,8.77-9.78a5.44,5.44,0,0,1,4.61-3.23,3.1,3.1,0,0,0,2-1c2.48-2.62,5.87-3.4,9.13-4.22,6.57-1.65,13.32-2,20.07-2.14.68,0,.81-.61.91-1.15h1.3c.48,1.36,1.89,1.47,2.91,1.84,4.08,1.48,7.43,4.85,12.13,4.69v2c-3.2,1.57-6.36-.4-9.61-.09-3.85.37-7.84.63-11.49-1.34a2.44,2.44,0,0,0-3.22.75c-1.23,1.52-2.86,1.69-4.59,2.05-2.06.43-4.57-.13-6.09,1.58-1.15,1.29-2.61,1.7-3.84,2.53-2.11,1.43-3.72,3.49-6.61,3.5-.31,0-.83,1-.88,1.63-.15,1.74-1.08,2.34-2.71,2.63-3.29.58-2.36,4.31-4.22,6.12-.82.8,1,1.65,1.5,2.54,1.47,2.64,3.27,5.07.38,8.17-1.49,1.6-.69,4.92-3.93,5.6-.46.1-.64,1.51-.94,2.31-1.1,2.93-1.13,6.46-4.68,8a2.6,2.6,0,0,0-1.1,1.9c-.58,6.79-3.24,13.3-2.73,20.22.16,2.16.43,4.3.65,6.45-1,.1-2.22-.42-2.78.4-.73,1.06,1,1.52,1.13,2.38.43,2.43,3.25,2.89,3.83,5.65,1.15,5.4,1,10.74,1.09,16.13,0,1.27-.35,3,1.19,3.4C477.47,455.88,477.36,458,477.21,460.35Z" transform="translate(-59.16 -146.12)"/><path class="cls-6" d="M420.22,460.39l-39.22,0a37.82,37.82,0,0,0-1.27-11c.06-5.71-1.8-11.27-1.3-17,1.57,1.1,3.12,2.27,5.22,2,.6,2.15,2.72,2.79,4.25,3.76,3.51,2.21,6.35,5.31,10.38,6.95,2.74,1.12,5,3.6,7.52,5.45C410.5,453.92,415.43,457,420.22,460.39Z" transform="translate(-59.16 -146.12)"/><path class="cls-9" d="M383.65,434.27c-2.1.3-3.65-.87-5.22-2V431l1.36-1.27a7.57,7.57,0,0,0,2.93-1.34c3.92-2.47,7.91-4.84,11.78-7.38,5.67-3.73,11.71-6.83,17.44-10.49,5.43-3.47,10.85-7.07,16.86-9.56a36,36,0,0,0,.66,9.11c-.33,2.88.44,5.68.61,8.53-5.2-.68-10.19-.37-14.3,3.42-1.84,1.69-4.5.59-6.39,2-4.26,3.23-9.19,4.16-14.4,4.52a10.87,10.87,0,0,0-6.62,2.33c-1.4,1.21-3.22.84-5,.19Z" transform="translate(-59.16 -146.12)"/><path class="cls-9" d="M235.82,269.42c1.2,1.19,2.13,2.61,4.12,2.89,1.23.17,1.83,1.46,1.76,2.8-.1,1.87.64,2.92,2.64,2.82,1.53-.08,2.51.51,2.64,2.18a2.14,2.14,0,0,0,1.44,2c3.47.68,4,4.83,7.13,5.87a.81.81,0,0,1,.14,1.38c-.75.72-1.62,1.2-2.56.28-2.48-2.43-5.53-4.13-8.18-6.31-3.37-2.77-7.26-4.71-10.7-7.32-.88-.67-2-1.08-2.39.22-1.22,4.29-4.44,7.69-5.2,12.16h0c-2.43,1.92-4.85-.37-7.3,0-2.12.3-3.37-.56-3.17-2.91.18-2-.77-2.67-2.8-3.06-2.93-.56-6.44-3-7-4.81-1.26-4.16-5.06-4.33-7.45-5.75a27.31,27.31,0,0,0-10.37-3.92c-5.88-.74-11.66-2.44-17.55-2.95-6.05-.53-12.19,0-18.28-.2-1.55-.05-3.09,1.51-4.62.06a1.44,1.44,0,0,1,.67-1.28c5.27-1,9.87-4,15-5.26.11,1,.55,1.34,1.53.89.77-.35,1.58-1.1,2.43-.7,4.47,2.12,9.24.49,13.78,1.21,4.17.67,8.49-.07,12.53,1.31,3.16,1.08,6.31,2,9.56,2.82,2.11.52,4.78.23,6.35,1.93a7.66,7.66,0,0,0,5,2.57A38,38,0,0,1,220.9,270c.48.15.89.8,1.42.33s.17-1.15-.14-1.73-.51-1.17-.76-1.76c3.58.58,5.69,3.44,8.35,5.43,1.24.93,2.4,2.11,3.42-.19C234.15,271.24,234.55,269.89,235.82,269.42Z" transform="translate(-59.16 -146.12)"/><path class="cls-3" d="M72.94,186.34c7.51,4.06,15.12,7.95,22.5,12.23,8.3,4.82,17.1,8.74,25.11,14.07a11.17,11.17,0,0,0,4.12,1.89l.6.59-.6.64a13.13,13.13,0,0,0-4,3.95c-5.45,6.1-10.73,12.36-16.43,18.22-2.58,2.65-3.91,6.55-7.74,8-3.3-2-3.5-5.24-4.28-8.75a60.64,60.64,0,0,0-5.76-15.27C85,219,84.2,215.7,82.74,212.77c-2.65-5.3-4.13-11-6.92-16.33A21.2,21.2,0,0,1,72.94,186.34Z" transform="translate(-59.16 -146.12)"/><path class="cls-4" d="M96.53,245.9c3.83-1.42,5.16-5.32,7.74-8,5.7-5.86,11-12.12,16.43-18.22a4.1,4.1,0,0,1-.41,3.27c-1.72,3.05-3.9,5.77-5.74,8.64a78.12,78.12,0,0,1-5.7,7.78,20.05,20.05,0,0,0-4.31,9.34c-.57,2.78-1.89,3.93-4.4,4.36-2.3.4-4.45,1.06-5.4,3.52-1.39,3.61-2.76,7.22-4.14,10.83v2.61A2.84,2.84,0,0,0,88,273.21c0,.94-.32,1.73-1.35,2a1.59,1.59,0,0,1-1.82-1c-.56-1.15-1.57-1.34-2.67-1.54a2.72,2.72,0,0,1-2.44-2.32c-.21-2.81-2-2.88-4.12-2.81-2.59.08-5,0-7.46-1.51-2.28-1.4-5.06-.11-7.6.21.33-3,3.41-2.07,5-3.21a49.2,49.2,0,0,1,7.14-4.14A100.14,100.14,0,0,1,83.9,254c1.94-.63,4.47-1.36,6,1.39.77,1.37,2.45,1.28,2.85,0,.91-2.81,3.84-4.88,3.08-8.27Z" transform="translate(-59.16 -146.12)"/><path class="cls-3" d="M61.83,363.63c1.44-7.45,4.42-14.43,6.56-21.67s4.06-14.58,6.69-21.65c1.53-4.11,1.54-8.73,4.23-12.45a4.25,4.25,0,0,0,.77-3.1c.1-.56.23-1.09.86-1.3.85.38,1.36,1.4,2.47,1.28a3.15,3.15,0,0,0,1,2.64,20.37,20.37,0,0,1,5.67,11.06c.61,3.28,1,6.62,2,9.82.59,2.08-.28,4.63,1.34,6.2a6.09,6.09,0,0,1,1.78,5.93c-.65,3.32,1.83,6.2,1.06,9.52-.15.65,1,.57,1.61.63-.39,2.63-2.45.38-3.71,1.27-2.95,2.1-6.52,3-10,4.13-2.44.81-5.41.78-7.26,3.1h-2c-1.41-.07-2.5.29-2.63,1.95-3.51,0-6.41,2.32-9.84,2.63Z" transform="translate(-59.16 -146.12)"/><path class="cls-13" d="M90.6,270.07q0-1.31,0-2.61c7-2,14.09-1.21,21.17-1.33a8.57,8.57,0,0,1,4.72,1c2.66,1.64,5.09,1.67,7.52-.33q.24,3.3.47,6.6l-.51.51-.66.77a11.31,11.31,0,0,0-1.75.78c-13.44,8.87-26.37,18.52-40.14,26.9-.47-6.72,2.94-12.29,5.1-18.29C88.16,279.53,90.27,275,90.6,270.07Z" transform="translate(-59.16 -146.12)"/><path class="cls-10" d="M81.43,302.36c13.78-8.38,26.7-18,40.14-26.9a11.32,11.32,0,0,1,1.75-.78v1.94c-1,1.81-1.17,4.12-3.27,5.23a2,2,0,0,0-2.4,1.68c-.57,4.27-3.51,7.11-6,10.2-1.36,1.68-2.4,3.68-3.72,5.2-2.42,2.79-4.53,7-9.51,5.79-2.63-.62-4.76,1.9-7.4,1.08l-.39,1.51c-2.41-.85-4.64-2.17-7.21-2.59-1.11.12-1.62-.9-2.47-1.28Z" transform="translate(-59.16 -146.12)"/><path class="cls-9" d="M222.08,395.66a26.79,26.79,0,0,1,9.06,8.44c1.41,2,3.5,4,1.52,7-.65,1-.09,2.77-.11,4.18s.47,2.54,2.18,2.61c2.4.1,3.1,1.57,3.06,3.73-.05,2.94,0,5.88,0,8.82,0,1.89.38,3.17,2.64,3.2a2.57,2.57,0,0,1,2.58,2.47c.07.43,0,1.15.17,1.25,3.28,1.53.95,3.56.52,5.41-1.18,2.39-3.82,3.21-5.8,4.16-2.65,1.26-4.87,3.13-7.5,4.34-1.67.77-1.42,2.55-1.7,3.92-1,5.21-1,5.23-6.32,5.22l-9.42,0c-1-3.5-3.33-6.22-5.49-9-.53-.68-1.53-1.27-1.62-2-.59-4.77-4.4-4.22-7.52-4.6-1.52-.18-3.13-.32-3.27-2-.32-3.8-3.37-3.87-5.66-3.8-3.4.1-5.34-2.77-8.35-3.21-.63-.09-.76-1-.81-1.65-.22-3.31-2.38-3.16-4.9-3-4.25.25-8.08,2.41-12.33,2.45-1,0-2.21.34-3.06-.65l2.62-2.59a31.71,31.71,0,0,0,4.13-1.7c4.33-1.75,7.91-5.26,12.86-5.53.82,1.25,2.51-.7,2.87.45,1.31,4.2,5.4,4.06,8.37,5.3,2.46,1,4.73,2.6,7.27,3.26a27.17,27.17,0,0,1,9.45,4.1,6.75,6.75,0,0,0,6.79.76c-1.41-1-2.92-1.47-2.68-3.22.48-3.47-1.41-6-3.44-8.47-.7-.85-1.6-1.71-1.62-2.77-.08-5.48-2.55-10.84-.84-16.4,3.44-3.47,7.71-5.82,11.79-8.35C218.85,397,220.07,395.25,222.08,395.66Z" transform="translate(-59.16 -146.12)"/><path class="cls-8" d="M162.56,430.35l-2.62,2.59c-10.49,4.6-20.39,10.36-30.59,15.55-.7.35-1.42.53-1.5,1.46L126,450l-1.28-.07q0-7.84,0-15.67,0-15.7,0-31.4c-.39-3.28.85-6.68-.71-9.88l.63-1.18,1.38-.69.62-.06a2.53,2.53,0,0,0,1.71,2.72c3.2,1.38,6.3,3,9.45,4.51-.07,4.89,3.74,7.75,6.65,10.4,2.56,2.33,3.52,4.85,4.43,7.73.25.79,0,2.19.78,2.29,2.55.32,3,2.24,3.9,4.06a3.05,3.05,0,0,0,2.62,1.7c.82,0,1.69.43,1.71,1.23C157.86,428.88,160.13,429.67,162.56,430.35Z" transform="translate(-59.16 -146.12)"/><path class="cls-14" d="M470,427.07c-.22-2.15-.49-4.3-.65-6.45-.51-6.93,2.15-13.43,2.73-20.22a2.6,2.6,0,0,1,1.1-1.9c3.56-1.57,3.58-5.1,4.68-8,.3-.8.49-2.22.94-2.31,3.23-.68,2.44-4,3.93-5.6,2.88-3.1,1.09-5.54-.38-8.17-.5-.9-2.32-1.75-1.5-2.54,1.87-1.81.93-5.53,4.22-6.12,1.64-.29,2.57-.88,2.71-2.63,0-.59.57-1.63.88-1.63,2.89,0,4.5-2.08,6.61-3.5,1.23-.83,2.69-1.24,3.84-2.53,1.53-1.71,4-1.15,6.09-1.58,1.72-.36,3.35-.53,4.59-2.05a2.44,2.44,0,0,1,3.22-.75c3.65,2,7.65,1.7,11.49,1.34,3.25-.31,6.41,1.66,9.61.09,3.34.27,5.57,3.65,9.14,3.29.13,1.65,1.23,2,2.63,1.95h.64c.08,1.31,1.21,1.4,2.07,1.63,2.76.75,5.14,2.29,7.61,3.62a2.81,2.81,0,0,1,.17.6,25.43,25.43,0,0,0,5.21,11.14,7.48,7.48,0,0,0,1.3,5.24,12.25,12.25,0,0,0,1.32,4.58H547.12c-4.41,0-5.53-1.88-3.43-5.8.35-.66,1-1.16,1.39-1.8,1.67-2.74.66-7.13-2.2-7.74-3.45-.73-7.45-1.44-10.5.43-2.78,1.7-5.4,1.84-8.3,1.84-4.24,0-8.49.13-12.73,0s-7.65.39-10.93,3.6c-3.7,3.62-4.22,4.07-1.22,8.18a24.94,24.94,0,0,1,1.72,2c1,1.76,1.87,3.92-.1,5.28-2.41,1.67-3.71,4.22-5.8,6.11s-3,3.64-1.82,6.56c.83,2.08,1.37,4.75-2.6,5.16-2.33.24-2.88,2.27-1.63,4.21a4.37,4.37,0,0,1,.69,4.21c-2.13,3-5.82,3.5-8.65,5.39-3.25,2.17-6.88,3.78-10.34,5.63Z" transform="translate(-59.16 -146.12)"/><path class="cls-5" d="M561.59,374.74a25.43,25.43,0,0,1-5.21-11.14l1.3.66c1.35,1.26,3,2.25,3.94,3.89a3.51,3.51,0,0,0,1.23,3.05c3.74,3.6,7.26,7.42,10.8,11.23,2.26,2.44,4.44,4.91,8.28,3.34.87.41,1.37,1.54,2.56,1.35a15,15,0,0,0,5.93,5.33c2.15,1,3.06,3.16,4.65,4.65,3,2.78,6.6,4.87,9.16,8.12,1.65,2.09,4.53,2.94,5.76,5.5-.4,4.24,1.08,8.27,1.33,12.44-1.28.06-2.57,1.32-3.82-.38-1.72-2.33-3.77-4.42-5.5-6.74-4.43-6-9.38-11.52-13.41-17.78a3.9,3.9,0,0,0-3.2-2,7.46,7.46,0,0,1-5.12-2.5c-3.37-3.51-6.73-7-10.35-10.29-2-1.78-3.7-3.53-4.44-6.16A3.18,3.18,0,0,0,561.59,374.74Z" transform="translate(-59.16 -146.12)"/><path class="cls-16" d="M561.61,368.15c-1-1.64-2.59-2.63-3.94-3.89,1.1-2.73,2.17.83,3.26,0,1.52,3,4.91,3.49,7.43,5,4.19,2.55,8.91,4.21,13.32,6.43,2,1,4.08,1.69,5.82,3.31a4.29,4.29,0,0,1,1.59,3.6,22.9,22.9,0,0,0-4.61,4.49c-1.19.19-1.68-.94-2.56-1.35-3.91-3.64-7.71-7.43-11.78-10.88C567.38,372.55,564.93,369.78,561.61,368.15Z" transform="translate(-59.16 -146.12)"/><path class="cls-11" d="M570.77,304.09a49.1,49.1,0,0,0-10.49,4.57c-1.28.11-2.63-.29-3.82.41-3.55,2.06-7.44,3.31-11.21,4.86-1.59-.43-2.5,1.31-4,1.23a14.94,14.94,0,0,1-.38-2.22c-.07-3.08-1.5-4.48-4.68-4.43-1.23,0-2.52-.52-3.84-.5a1.84,1.84,0,0,1-2.11-1.61,3.12,3.12,0,0,0-2.89-3c-1.81-.3-2.34-1.6-2.45-3.33-.12-1.93.16-4.63-.95-5.62-2.61-2.32-.85-4.24,0-6a31.75,31.75,0,0,1,3.39-6.46,13.59,13.59,0,0,0,2.87-7.39,1.44,1.44,0,0,1,.69-1.29c3.51,0,5.16,3,7.49,4.79,10.33,7.85,20.46,16,30.68,23.94a7.65,7.65,0,0,0,1.73.76Q570.77,303.44,570.77,304.09Z" transform="translate(-59.16 -146.12)"/><path class="cls-11" d="M124.54,391.8l-.63,1.18c-.68.53-1.38,1-2,1.6l-21.46,18.76c-3.58-1.45-5-5-7-7.77-8.54-11.63-17.54-22.89-26.62-34.1-1.55-1.91-2.88-4-4.31-6,2,.62,4,1.08,5.86,1.89,15,6.48,29.65,13.73,45.07,19.22C116.67,389.3,120.77,390.2,124.54,391.8Z" transform="translate(-59.16 -146.12)"/><path class="cls-14" d="M113.41,386.59C98,381.1,83.33,373.85,68.34,367.37c-1.88-.81-3.9-1.27-5.86-1.89q0-.93,0-1.86c3.43-.31,6.33-2.61,9.84-2.63,1.21-.2,2.4-.42,2.63-1.95h2a18.49,18.49,0,0,0,6.62-1.46,4.71,4.71,0,0,1,4.07.16c2.24,1.25,5.2,1.85,6.8,3.24,2.45,2.12,4.65,4.73,7.07,7.05.84.81.27,2.78,1.25,3.91,3.66,4.25,7.11,8.69,11.25,12.51C115.23,385.66,114.19,386,113.41,386.59Z" transform="translate(-59.16 -146.12)"/><path class="cls-12" d="M100.43,413.35l21.46-18.76c.65-.57,1.35-1.07,2-1.6,1.56,3.2.32,6.6.71,9.88a2.27,2.27,0,0,0-2.14,1.27c-1.79,4.32-6.38,6.93-7.18,11.85-.14.84-.94,1.1-1.69,1.34a4,4,0,0,0-2.63,2.28c-1,3.71-4,3.41-6.67,3.46-2,0-3.23.47-3.86,2.5a3,3,0,0,1-3.26,2.17Z" transform="translate(-59.16 -146.12)"/><path class="cls-12" d="M97.13,429c1,1,.22,1.16-.6,1.32A1.31,1.31,0,0,1,97.13,429Z" transform="translate(-59.16 -146.12)"/><path class="cls-14" d="M267.85,429h.69l1.95,2c.12.41.12.95.39,1.22,4.55,4.62,9.82,8.47,14.94,12.29,4,3,8.35,5.58,12.11,9a19.82,19.82,0,0,0,5.24,3.56c2,.9,4.38,1.48,5.93,3.3-15.44,0-30.88,0-46.33.08-2.38,0-3.07-.59-2.33-3.06,2-6.7,3.84-13.46,5.64-20.22C266.81,434.49,267.27,431.75,267.85,429Z" transform="translate(-59.16 -146.12)"/><path class="cls-5" d="M379.73,449.32a37.82,37.82,0,0,1,1.27,11H325.48l.61-5.13c1.6.19,2.78,1.83,4.58,1.29.94,1.72,2.92,1.59,4.37,2.4.75.42,1.88-.57,1.27-1-3.07-2.08.15-3.6.25-5.34h0c1.42-.5,3.13-.65,4.2-1.55,4.8-4,10.73-5.94,16.08-8.9.16,2.2-1.31,2.93-3,3.6a2.82,2.82,0,0,0-1.87,2.1c-.11.93.91,1.33,1.57,1.3,4.42-.16,8.7,1.3,13.13,1S375.31,448.6,379.73,449.32Z" transform="translate(-59.16 -146.12)"/><path class="cls-8" d="M326.09,455.21l-.61,5.13-16.37,0c-1.55-1.83-3.94-2.4-5.93-3.3a19.82,19.82,0,0,1-5.24-3.56c-3.76-3.4-8.11-6-12.11-9-5.12-3.81-10.4-7.67-14.94-12.29-.27-.27-.27-.81-.39-1.22l3.25.67c4.33,2.92,9.22,4.66,14,6.69,11.32,4.81,22.53,9.91,33.78,14.89,0,1,0,2,1.14,2.4.93.34,1.38-.2,1.49-1.09C324.85,454.58,325.61,454.48,326.09,455.21Z" transform="translate(-59.16 -146.12)"/><path class="cls-9" d="M124.68,449.94,126,450c-1.3,2.47.71,3.69,2,5.16,1.51,1.74,3.77,2.82,4.51,5.22l-20.9,0c1.29-2.88,4.12-3.91,6.59-5.28S123.06,452.38,124.68,449.94Z" transform="translate(-59.16 -146.12)"/><path class="cls-4" d="M119.54,438.42c.73.27,1.41.73,1.47,1.51s-.76.84-1.37.85c-.81,0-1.55-.2-1.41-1.24A1.21,1.21,0,0,1,119.54,438.42Z" transform="translate(-59.16 -146.12)"/><path class="cls-1" d="M540,460.34H521.06c-.39-1.44-1.68-1.89-2.81-2.48-2.56-1.34-5.12-2.65-7.69-4v-.66a9.38,9.38,0,0,0,3.9-5.35c1.45-4-.5-8.64,2.26-12.44.32-.44-.2-1.43-.2-2.17,0-1.07-.28-2.42.25-3.17,3-4.28,2.64-9.61,4.72-14.24s2.88-10,4.39-14.95c.41-1.33.15-2.06-1-2.66a4.26,4.26,0,0,1,4.91-.16c6.3,4.63,13.55,7.51,20.29,11.3,7.73,4.35,15.58,8.5,23.31,12.85,2,1.1,4.22,1.77,5.81,3.51-.19,1.49-1.06,2.63-2.5,2.53-5.29-.35-9.31,3.1-13.91,4.7-1.86.65-4.52.42-5.78,2.34-1.86,2.84-5.09,3.1-7.72,4-3.32,1.1-6.58,1.89-9,4.59a2,2,0,0,1-1.7.8c-2.5-.22-3.77,1.11-3.8,3.39,0,2.7-1.2,6.33,2.33,7.39C540.22,456.39,540.07,458.14,540,460.34Z" transform="translate(-59.16 -146.12)"/><path class="cls-3" d="M540,460.34c.08-2.2.23-4-2.82-4.86-3.53-1.06-2.37-4.69-2.33-7.39,0-2.28,1.3-3.61,3.8-3.39a2,2,0,0,0,1.7-.8c2.41-2.7,5.68-3.49,9-4.59,2.63-.87,5.85-1.14,7.72-4,1.26-1.92,3.93-1.69,5.78-2.34,4.6-1.6,8.62-5.05,13.91-4.7,1.44.1,2.32-1,2.5-2.53l2,.64v.67c-.21.61-.48,1.21-.64,1.83-1.5,5.9-3.28,11.74-4.36,17.71-.85,4.68-3.34,8.9-3.48,13.72Z" transform="translate(-59.16 -146.12)"/><path class="cls-5" d="M572.74,460.34c.14-4.82,2.63-9,3.48-13.72,1.08-6,2.87-11.82,4.36-17.71.16-.62.42-1.22.64-1.83a2.66,2.66,0,0,1,.94.21c7.48,5.18,14.84,10.54,22.46,15.49,3.59,2.33,6.69,5.38,10.61,7.2.05,1.82-1.2,2.57-2.58,3.36-2.81,1.61-5.53,3.38-8.31,5a2,2,0,0,0-.9,2Z" transform="translate(-59.16 -146.12)"/><path class="cls-3" d="M510.57,453.24v.66c-2.55,1.5-5.06,3-5.25,6.45h-28.1c.15-2.31.25-4.47-2.74-5.32-1.54-.44-1.16-2.13-1.19-3.4-.1-5.39.06-10.74-1.09-16.13-.59-2.76-3.4-3.22-3.83-5.65-.15-.86-1.86-1.32-1.13-2.38.56-.82,1.83-.3,2.78-.4l.65.64a1.75,1.75,0,0,0,.83,1.29c4,2.75,8.05,5.38,12,8.13,8.15,5.65,17.11,10,25.18,15.71A5,5,0,0,0,510.57,453.24Z" transform="translate(-59.16 -146.12)"/><path class="cls-6" d="M505.31,460.35c.19-3.42,2.7-5,5.25-6.45,2.56,1.32,5.13,2.63,7.69,4,1.14.59,2.42,1,2.81,2.48Z" transform="translate(-59.16 -146.12)"/><path class="cls-8" d="M613.92,437.54c.19,2.87,1.68,5.55,1.2,8.51-2.88-2.82-6.27-5.32-6.39-9.9,0-1.17-.88-1.46-1.57-2.13-3-3-7.29-5-8.35-9.76-3.71-.6-4.63-4.44-7.2-6.14-1.47-1-2.92-1.29-3.34-3.31-.33-1.62-1.86-2.09-3.33-2a2.2,2.2,0,0,0-2.41,2.46c.12,2.78-1.39,3.66-3.92,3.33l0-1.95a1.21,1.21,0,0,0-1.29-1.32c-1.45-5.12-4.73-9.48-6-14.72-.89-3.81-3.85-6.83-4.53-10.78l0-.66c1.51.16,1.9,1.44,2.75,2.4,2.05,2.32,2.49,6.53,7,6.26,1.08-.06,1.7,1.18,1.77,2.09.25,2.88,2.05,3,4.34,3,1.74,0,4-1,5.16.9,2.41,4,7.18,6,8.56,10.87.34,1.17,1.44,2.14,2.25,3.16,3.86,4.81,7.17,10,10.79,15C610.61,434.47,611.62,436.77,613.92,437.54Z" transform="translate(-59.16 -146.12)"/><path class="cls-6" d="M578.61,418.56c2.53.33,4-.55,3.92-3.33a2.2,2.2,0,0,1,2.41-2.46c1.47-.06,3,.42,3.33,2,.41,2,1.87,2.34,3.34,3.31,2.57,1.7,3.49,5.54,7.2,6.14,1.06,4.71,5.3,6.75,8.35,9.76.68.68,1.53,1,1.57,2.13.13,4.57,3.52,7.08,6.39,9.9l.86,3.9-.75,0c-3.93-1.82-7-4.87-10.61-7.2-7.62-5-15-10.32-22.46-15.49a2.66,2.66,0,0,0-.94-.21v-.67C581.59,423.38,579,421.34,578.61,418.56Z" transform="translate(-59.16 -146.12)"/><path class="cls-1" d="M613.92,437.54c-2.3-.77-3.31-3.07-4.5-4.7-3.62-5-6.94-10.17-10.79-15-.81-1-1.92-2-2.25-3.16-1.38-4.82-6.14-6.89-8.56-10.87-1.17-1.93-3.42-.89-5.16-.9-2.29,0-4.09-.16-4.34-3-.08-.92-.7-2.16-1.77-2.09-4.48.27-4.92-3.94-7-6.26-.85-1-1.24-2.24-2.75-2.4a2,2,0,0,0-1.32-2v-2.59c-.83-1.56.2-4.16-2.6-4.6a7.48,7.48,0,0,1-1.3-5.24,3.18,3.18,0,0,1,3.89,2.59c.73,2.63,2.45,4.38,4.44,6.16,3.62,3.24,7,6.78,10.35,10.29a7.46,7.46,0,0,0,5.12,2.5,3.9,3.9,0,0,1,3.2,2c4,6.26,9,11.82,13.41,17.78,1.73,2.33,3.78,4.41,5.5,6.74,1.25,1.69,2.54.44,3.82.38-.09,3.7,1.56,7,2.16,10.61A18.76,18.76,0,0,1,613.92,437.54Z" transform="translate(-59.16 -146.12)"/><path class="cls-5" d="M530.88,273.29a1.44,1.44,0,0,0-.69,1.29c-6.25,2.89-12.53,5.73-18.76,8.68-8.78,4.15-17.5,8.41-26.27,12.57-5,2.39-10.35,4.13-15.16,7-1-.18-1.3.9-2,1.24h-.6a10.74,10.74,0,0,1,1-4.69c1.47-3.79,3.37-7.47,3.61-11.65.56-.1,1.09-.28,1.2-.91.62-3.56,2.17-6.82,3.24-10.23,3.57-11.32,7.07-22.66,10.59-34,.72-.49.64-1.24.65-2h2c.09,1.5,1.16,2.33,2.24,3,3.88,2.47,7.65,5.2,11.29,7.88s7.44,5.46,11.1,8.27c4.34,3.34,8.88,6.41,13.32,9.63C529,270.45,530.5,271.4,530.88,273.29Z" transform="translate(-59.16 -146.12)"/><path class="cls-6" d="M519.72,217.09c.8-2.15,2.51-2.69,4.59-2.61C523.6,216.78,521.37,216.43,519.72,217.09Z" transform="translate(-59.16 -146.12)"/><path class="cls-3" d="M472,287.74c-.23,4.18-2.14,7.86-3.61,11.65a10.73,10.73,0,0,0-1,4.69,1.4,1.4,0,0,1-1.25.7,3.05,3.05,0,0,0-.56-.79c-6.24-4.49-12.33-9.21-18.82-13.29-2.41-1.51-4.51-3.57-6.9-4.71-3-1.46-5.35-3.69-8-5.46-3.37-2.22-6-5.51-10.19-6.53-.79-2.7-3-4.19-5.07-5.71s-4.12-2.62-5.73-4.56c-1.1-1.32-2.35-2.52-4.39-2.22-.93.13-1.54-.68-2.18-1.27-2.78-2.58-5.7-5-8.31-7.76-1.31-1.37-3.13-.9-4.36-1.83C388,247.9,384.46,245,381,242.1c-.36-.3-.4-1-.59-1.47,2.85-3.47,7-5.08,10.61-7.55,6.27-4.34,12.55-8.74,19.07-12.62,5.15-3.07,9.74-7.14,15.45-9.27.72.37,1.42.91,1.15,1.75-2,6.48-1.47,13.18-1.8,19.8,0,1,0,2,0,2.93.24,7.49-.22,15-.68,22.42a38.77,38.77,0,0,0,1.33,11.19c.32,1.41,1,1.21,2.11,1.1,2.9-.28,5.32-1.76,7.88-2.89a5.37,5.37,0,0,1,2.44-.71c3.82-.11,8.18-1.6,9.75,4,.11.4,1.1.55,1.69.82.79.37,1.89.61,2.06,1.47.8,4.09,3.85,3.63,6.79,3.59a3.33,3.33,0,0,1,2.16.49,47.35,47.35,0,0,1,6.49,7.17C468.37,286.57,469.65,287.5,472,287.74Z" transform="translate(-59.16 -146.12)"/><path class="cls-12" d="M475.24,183.73q0,1.63,0,3.27a87.18,87.18,0,0,1,4,15.76c.24,1.32,1.65,2.31,1.23,3.87-1.07,0-1.4-.92-1.9-1.59-2.71-3.62-4.51-3.38-7.11.52-1.88,2.81-4.66,5-7.09,7.23-2.9,2.7-5.41,5.68-8,8.58-1.7,1.89-2.21,3.74,1.53,3.66a3.42,3.42,0,0,1,2.08.83c4.92,4.23,11.05,6.32,16.53,9.55,2.88,1.7,6.53,2.2,8.59,5.23l-.66,2c-4.93,2.41-9.83,5-14.85,7.06-3.28,1.37-5.59,4.49-9.35,4.72-.07-1-.4-2.33-1.17-2.58-3.52-1.14-2.73-3.93-2.75-6.43q0-5.88,0-11.77c0-.95-.34-2.15.72-2.68,2.61-1.32,1.44-2.14-.19-3.25-3.64-2.47-7.56-4.53-10.79-7.6a2.25,2.25,0,0,0-1.54-.34c-1.71.12-2.13-1.16-2.76-2.31-.81-1.47.3-2.44,1.08-3.09a7.37,7.37,0,0,0,2.84-3.71c.36-1.24,1.78-1.38,3-1.41,1.47,0,3-.33,3-2.25,0-3.45,3.87-2.11,4.76-3.84,1-2,.81-4.63,4.09-4.37a1.54,1.54,0,0,0,1.7-1.19,3.68,3.68,0,0,1,2.64-2.13,7.17,7.17,0,0,0,4.6-5C470.41,187.58,471.82,184.68,475.24,183.73Z" transform="translate(-59.16 -146.12)"/><path class="cls-8" d="M460.2,254.37c3.76-.23,6.07-3.36,9.35-4.72,5-2.1,9.92-4.65,14.85-7.06H487c-3.52,11.33-7,22.68-10.59,34-1.08,3.41-2.63,6.67-3.24,10.23-.11.64-.65.81-1.2.91-2.33-.24-3.61-1.17-5.09-3.44a47.35,47.35,0,0,0-6.49-7.17,3.33,3.33,0,0,0-2.16-.49c-2.93,0-6,.5-6.79-3.59-.17-.86-1.27-1.1-2.06-1.47-.58-.27-1.57-.42-1.69-.82-1.58-5.55-5.94-4.06-9.75-4,.09-1.31.88-1.74,2.09-2a11.17,11.17,0,0,0,5.11-2.57C450.16,259.58,455.75,258.08,460.2,254.37Z" transform="translate(-59.16 -146.12)"/><path class="cls-7" d="M320.21,379.32l3.28-19c1.86-1.12,2.18-2.68,1.3-4.58v-2c2.14-.33,4.71,1,6.25-1.59,1.77-2.93,5.07-3.83,7.78-4.71s3.77-2,3.65-4.64c0-1,.29-1.92.32-2.89.12-3.57,2.71-6.44,2.61-10.15-.08-3,.45-6,4.14-7.25,1.15-.39,1.46-2.07,1.41-3.45a14.21,14.21,0,0,0,1.38-.76c4.58-3.2,9-6.57,13.78-9.51,1.42-.88,3.37-1.53,3.32-3,0-1.17-1.6-2.37-3-3.26-6.85-4.49-13.91-8.68-20.42-13.68a4,4,0,0,0-3-1.15c-.05-.43,0-1.13-.18-1.25-3.84-2.1-1.24-5-1-7.65a1.6,1.6,0,0,1,1.5-1.48c3.36-.48,6.63-2,10.16-.47,2,.85,3.58.34,4.07-2.18.36-1.87,1.86-2.28,3.57-2.76,2.43-.68,5.14-.69,6.47-4,.94-2.33,3.84-1,5.92-.93a8,8,0,0,1,1.57.41c-.27,3.11-.36,6.25-.84,9.34-1.41,9.05-1.28,18.27-3.06,27.28-.11,4.33-.5,8.68-.51,13,0,11.18-1.15,22.32-.83,33.5-3.57-.41-4.29,3.37-6.79,4.67-1.9,1-3.4,2.86-1.4,5.35.64.8.23,1.72-.7,2.14s-2.31.36-2.5-.69c-.53-2.93-2.65-2.47-4.48-2.28-3.54.37-7.51.13-10.44,1.72a21.75,21.75,0,0,0-7.38,6.52c-2.08,3.07-6.18,4.08-7.38,7.87-.06.2-.8.19-1.23.27-.81.15-1.68.67-1.73,1.32-.35,3.94-4.28,4.26-6.32,6.46Z" transform="translate(-59.16 -146.12)"/><path class="cls-8" d="M320.86,272.69h1.31l0,1.29q0,1.64,0,3.29c-.83.21-2.31-1.19-2.42.26-.22,3-1.93,5.7-1.52,8.82.23,1.75,1.58,2.25,2.72,2.89,1.46.82,1-1.29,1.9-1.51,1.22,1.39.42,3.06.64,4.59-2.71-1.71-3.24-.24-3.27,2.17-.08,5.18,1.46,10.3.1,15.54-1.11,4.28-4.84,6.24-7.58,8.85-2,1.93-3.27,3.14-1.16,5.39a9.47,9.47,0,0,1,1.53,3.11,42.17,42.17,0,0,0,4.34,8.11,4.44,4.44,0,0,0,5.83,1.39,8.22,8.22,0,0,1,4.12-.74v1.31c-4.45.21-8.33,2.38-12.31,4-3.57,1.41-7,.08-7.28-3.77a5.94,5.94,0,0,0-.87-2.71c-1.41-2.39-1.74-5.28-4.12-7.3-.83-.7-.86-2.45-2-3.67-4.79-4.91-10.36-8.74-16-12.43-3.6-2.34-7.14-4.93-11.62-5.47q0-1,0-1.93c2.87-2.82,6.38-4.72,9.76-6.8,9.69-6,19.43-11.86,29-18.06C314.94,277.25,318.81,276.18,320.86,272.69Z" transform="translate(-59.16 -146.12)"/><path class="cls-6" d="M371.25,304.08c1.78-9,1.66-18.23,3.06-27.28.48-3.08.57-6.22.84-9.34,1.22-4.47,1.21-9.12,2-13.67.5-3.07.89-6.15,1.33-9.23a25.28,25.28,0,0,1,6.79,4.07c2.91,2.17,4.29,6.24,8.43,6.87,4.76.72,6.82,5.44,10.69,7.54a6.81,6.81,0,0,0,2.58,1.19c2.52.27,4.35,1.35,4.23,4.31,0,1.09.4,2,1.58,2.11,2.17.22,4,.63,4.5,3.3.18,1.08,1.86.43,2.4,1.38-.74,2-2.83,1.61-4.27,2.37-3.31,1.75-6.2,4.16-9.49,6-2,1.11-4.9,1.34-5.86,4a11.41,11.41,0,0,1-4.62,3.41c-5.15,2.15-9.59,5.6-14.53,8.16C377.69,300.95,375.26,304.13,371.25,304.08Z" transform="translate(-59.16 -146.12)"/><path class="cls-12" d="M343.11,287.74a4,4,0,0,1,3,1.15c6.51,5,13.57,9.19,20.42,13.68,1.36.89,2.92,2.09,3,3.26,0,1.52-1.9,2.17-3.32,3-4.74,2.94-9.2,6.31-13.78,9.51a14.2,14.2,0,0,1-1.38.76c-1.57.24-2.62,1.39-3.86,2.22-3.34,2.25-6.22,5.14-9.89,6.93a6.75,6.75,0,0,0,.61-6.43c-1.58-3.4-1.25-7-1.25-10.53,0-1.46-.46-2.73-1.84-3.12-1.94-.55-2.13-1.83-2.11-3.47,0-4.34-.2-8.7.07-13,.32-5-.11-9.68-4.25-13.24-.27-.23-.26-.8-.39-1.21,3.32,2.36,6.63,4.73,10,7.06C339.7,285.5,341.41,286.6,343.11,287.74Z" transform="translate(-59.16 -146.12)"/><path class="cls-9" d="M328.06,277.27c.12.41.11,1,.39,1.21,4.14,3.56,4.57,8.19,4.25,13.24-.27,4.33,0,8.68-.07,13,0,1.64.17,2.93,2.11,3.47,1.38.39,1.84,1.66,1.84,3.12,0,3.55-.32,7.13,1.25,10.53a6.75,6.75,0,0,1-.61,6.43c-2,1.62-3.56,4-6.54,3.93.71-3.46-.38-5.11-3.91-5.9l0-2c2.17-2,1.84-3.77-.64-5.24l0-.65c-.22-1.53.58-3.2-.64-4.58-.07-6.72-1.82-13.32-1.41-20.07,0-.49-.37-1-.56-1.51-.22-1.53.58-3.2-.64-4.58l-.67-10.46q0-1.64,0-3.29c1.78.1,3.34.52,4,2.46C326.5,277.36,327.33,277.22,328.06,277.27Z" transform="translate(-59.16 -146.12)"/><path class="cls-14" d="M400,287.74c1-2.7,3.9-2.94,5.86-4,3.29-1.85,6.18-4.26,9.49-6,1.44-.76,3.53-.34,4.27-2.37a2,2,0,0,0,2-1.31c4.15,1,6.82,4.31,10.19,6.53,2.7,1.77,5,4,8,5.46,2.39,1.15,4.5,3.2,6.9,4.71,6.49,4.08,12.58,8.81,18.82,13.29a3,3,0,0,1,.56.79,3.36,3.36,0,0,1-1.29,2.18c-6.78,6.66-13.07,13.77-19.54,20.72-1.56,1.67-2.9,3.78-5.29,4.56-1.26-.68-2.87,1.45-4-.56-2.53-4.53-3.55-9.69-4.92-14.51-1.93-6.76-2.69-13.93-4.24-20.87-.44-2-1.37-3.18-3.4-3.3-1.61-.09-3-.71-3-2.34-.07-2.9-1.81-3-4-2.94C411,287.78,405.5,287.74,400,287.74Z" transform="translate(-59.16 -146.12)"/><path class="cls-1" d="M124.48,273.39l-.47-6.6c.73-1.3.58-2.73.58-4.14q0-23.45.08-46.89l.6-.64,9.81,4.58a2.25,2.25,0,0,0,1.14,2.08,62.7,62.7,0,0,1,5.74,5c2.81,2.64.64,8.28,5.45,10.11.09,0,.07.41.08.63.25,3.24,1,6.44.68,9.71-.49,5.47-1.49,11,.65,16.33a1.44,1.44,0,0,0-.67,1.28c-6.17,1.71-12.22,3.73-17.69,7.18a4.17,4.17,0,0,0-2.59.74A6.38,6.38,0,0,1,124.48,273.39Z" transform="translate(-59.16 -146.12)"/><path class="cls-5" d="M148.82,263.53c-2.13-5.37-1.14-10.86-.65-16.33.29-3.28-.43-6.48-.68-9.71,0-.22,0-.59-.08-.63-4.81-1.83-2.64-7.47-5.45-10.11a62.7,62.7,0,0,0-5.74-5,2.25,2.25,0,0,1-1.14-2.08c2.56-.17,4.39,1.61,6.46,2.59,7.51,3.57,14.89,7.41,22.32,11.14-.15,2,2.47,2,2.61,3.84.46,6,3.45,11.6,3.27,17.76-1.49,1.93-4.23,1.61-5.89,3.24C158.69,259.56,154.09,262.5,148.82,263.53Z" transform="translate(-59.16 -146.12)"/><path class="cls-2" d="M169.75,255c.18-6.16-2.81-11.73-3.27-17.76-.14-1.89-2.77-1.88-2.61-3.84a6.8,6.8,0,0,1,3.46.74c3.6,1.73,7.1,3.66,10.85,5.1,4.46,1.71,6.53,5.33,7.27,9.86-2.64,1.73-6.14,1.62-8.51,3.94C174.32,252.87,172.49,255.62,169.75,255Z" transform="translate(-59.16 -146.12)"/><path class="cls-3" d="M176.95,253.07c2.37-2.32,5.87-2.21,8.51-3.94,3.43-1.44,7.38-1.91,9.81-5.22a4.43,4.43,0,0,1,2.59-.66c.6.19,2.2.07,1.46.88-3,3.26-.3,5.33,1.17,7.75.54.89,2.16,1.57,1.54,2.6-.75,1.26-1.86-.21-2.83-.38a7.62,7.62,0,0,0-2.22-.34c-6.18.81-12.43-1.58-18.59.39C177.68,254.37,177.26,253.66,176.95,253.07Z" transform="translate(-59.16 -146.12)"/><path class="cls-4" d="M129.2,172.61c1.66,1.79,1.88,3.38-.65,4.59C128.77,175.66,128,174,129.2,172.61Z" transform="translate(-59.16 -146.12)"/><path class="cls-4" d="M128.54,183.07c-.52,1.72,1.26,4-1.3,5.24C127.76,186.59,126,184.29,128.54,183.07Z" transform="translate(-59.16 -146.12)"/><path class="cls-6" d="M176.95,253.07c.31.59.74,1.3,1.44,1.07,6.16-2,12.41.42,18.59-.39a7.62,7.62,0,0,1,2.22.34c1,.18,2.08,1.64,2.83.38.62-1-1-1.71-1.54-2.6-1.47-2.42-4.15-4.49-1.17-7.75.74-.8-.86-.69-1.46-.88a37.06,37.06,0,0,1,9.83-9.16c.4,4.22-1,8.1-2.44,11.92a10.25,10.25,0,0,0,.3,8.74c.29.56.32,1.36,1.1,1.47,2.46.34,3.85,2.25,5.51,3.74,1.18,1.06,2.37,1.88,4,1.62q0,.32,0,.65c1.38,1.94,2.45,4.24,5.23,4.58h0c.25.59.45,1.2.76,1.76s.77,1.17.14,1.73-.95-.18-1.42-.33a38,38,0,0,0-5.89-1.64,7.66,7.66,0,0,1-5-2.57c-1.57-1.7-4.24-1.4-6.35-1.93-3.24-.8-6.4-1.75-9.56-2.82-4-1.38-8.36-.64-12.53-1.31-4.54-.72-9.31.91-13.78-1.21-.85-.4-1.65.34-2.43.7-1,.45-1.42.1-1.53-.89,1.66-1.63,4.4-1.31,5.89-3.24C172.49,255.62,174.32,252.87,176.95,253.07Z" transform="translate(-59.16 -146.12)"/><path class="cls-9" d="M221.43,266.8c-2.78-.34-3.85-2.64-5.23-4.58A6.62,6.62,0,0,1,221.43,266.8Z" transform="translate(-59.16 -146.12)"/><path class="cls-4" d="M485.06,240.64c-2.06-3-5.72-3.53-8.59-5.23-5.47-3.23-11.61-5.32-16.53-9.55a3.42,3.42,0,0,0-2.08-.83c-3.75.08-3.24-1.78-1.53-3.66,2.62-2.9,5.13-5.88,8-8.58,2.44-2.27,5.21-4.42,7.09-7.23,2.61-3.89,4.4-4.13,7.11-.52.5.67.84,1.58,1.9,1.59q0,1,0,2c-.68,2.21.66,4,1.31,5.89,1.28,6.6,4.13,12.81,4.73,19.62.19,2.14,1.49,4.22,1.16,6.54h-2.61Z" transform="translate(-59.16 -146.12)"/><path class="cls-12" d="M481.78,214.47c-.65-1.91-2-3.68-1.31-5.89C481.67,210.38,483.14,212.11,481.78,214.47Z" transform="translate(-59.16 -146.12)"/><path class="cls-8" d="M222.08,395.66c-2-.42-3.23,1.29-4.56,2.12-4.08,2.53-8.35,4.88-11.79,8.35-1.67-.07-2.25,2-3.92,2,1.34-2.45-1.12-4.07-1.32-6.06-.39-3.87-2.66-4-5.57-3.77s-4.94-.66-5.52-3.74c-.13-.68-.3-1.31-1.08-1.41a4.47,4.47,0,0,1-4.23-4.19,1.07,1.07,0,0,0-1.08-1c-4.64.22-4.11-3-4.1-6,0-2.18.65-4.7-2.8-5.06-1-.1-1.32-1.22-1.36-2-.15-2.88-2.21-4.09-4.31-5.31a4.52,4.52,0,0,0-2-4.6l.7-1.27a4.38,4.38,0,0,0,1.22-.4c6-4.25,12-8.46,17.89-12.81,6.11-4.49,12.12-9.11,18.17-13.67H207c5,1.89,9.27,5.09,14,7.55,10.2,5.36,20.25,11,30.36,16.55,3.41,1.87,6.85,3.69,10.24,5.58,2.15,1.2,2.08,2.28-.12,3.66q-18.12,11.4-36.24,22.82C224.06,393.66,222.68,394.24,222.08,395.66Z" transform="translate(-59.16 -146.12)"/><path class="cls-7" d="M207,336.77h-.64c-.22-.48-.33-1.26-.68-1.39-4.6-1.73-8.08-5-11.84-8a149.82,149.82,0,0,0-13.13-9.57,70.12,70.12,0,0,1-12.65-9.69c-.9-.91-2.14-1.76-3.51-1.11s-.62,1.94-.71,3c-.33,3.58,2,6.82,1.34,10.49-.26,1.47.23,3,.39,4.5.66,6.13,1.06,12.29,1.49,18.44.05.76.46,2.1-.73,2.15s-1.07-1.31-1.21-2.24c-.18-1.16.67-2.76-1.3-3.2a1.4,1.4,0,0,1-.64-1.31c.65-2.48,1.8-5-.66-7.2v-2c.64-.44.63-.88,0-1.31v-2a37.56,37.56,0,0,0,0-5.16c-.23-1.66.17-3.72-1.93-4.66l0-3.27c1.4-2.28,1.55-4.88,2.07-7.41a2.71,2.71,0,0,0-1.26-3.2c-10.84-8.28-21.85-16.33-32.29-25.12a4.67,4.67,0,0,0-3-1L124,273.91l.51-.51a6.36,6.36,0,0,0,3.39-.65,1.87,1.87,0,0,0,2.2,1.88c7.46-.88,14.62,1.4,21.93,2.13,3,.29,7.09-.89,8.43,3.72.22.76,1.27.78,2,.71,4-.32,7.57,1.61,11.47,1.76,2.73.11,5.71-.12,6.35,3.75.11.66,1.1.94,1.91,1a37.79,37.79,0,0,0,4.16.61c2,0,2.74.71,3.14,2.78.76,3.92,2.69,6.93,7.38,7.23,1.58.1,3.8.11,4.53,2s2.13,2.1,3.47,2.59c2.91,1.06,6.61.51,8.15,4.24.07.17.61.12.92.22,2.21.71,6.77-2,7.32-5.12.67-3.68,3.3-3.66,5.59-3.26a50.38,50.38,0,0,0,9.09.45,65,65,0,0,1,13.83,1.59c4.67,1,9.15,3.49,14.17,2.36a1.91,1.91,0,0,1,.65,0c1.3.56,3.55,0,3.73,1.81.2,2-2.18,1.58-3.39,2.27-5.8,3.34-11.94,6-17.85,9.15-5.13,2.74-10.64,4.93-15.81,7.65C223.24,328.58,214.74,331.9,207,336.77Z" transform="translate(-59.16 -146.12)"/><path class="cls-2" d="M273.73,431.68l-3.25-.67-1.95-2q23-13,45.93-25.93c.59-.33,1.13-.66,1.24-1.39l1.24-.18.64,0c.69,4.39,3,8.38,3.25,12.86.27,5.12.49,5.47,5.4,5.41,2.28,0,4.12,0,5,2.83.7,2.18,4.28,2.54,5,.56,1.11-3.14,3.59-3.08,5.91-4s3.76-.51,4.23,2.06c.44,2.38,2.14,3.7,4.18,3,3.12-1.06,6-.08,8.46,1s5.84,1,7.94,3.13,4.81,3,7.55,3.86c-.05,1.26-1.13,1.49-2,2-.94-2.38-3-1.44-4.38-1.06-1.7.47,0,2-.2,3a1.42,1.42,0,0,1-1.31.66c-.54-.92-1.14-2-2.33-1.8-1.34.17-.75,1.49-1,2.31-.16.49-.38,1-.58,1.45l-.65.65c-2,0-3.39,1.15-4.58,2.61h-.65c-5.36,3-11.29,4.86-16.08,8.9-1.07.91-2.78,1.06-4.2,1.55-1.91-2.57-5.08-3.51-7.42-5.66-1.28-1.18-3.06-1.52-3.07-3.76s-1.33-3.58-3.69-3.65c-3.11-.09-6.32.5-9.07-1.72-.69-.56-1.66,0-2.52.12a8.91,8.91,0,0,1-3.54.14c-8.12-2-16.5-2.94-24.43-5.93A14.73,14.73,0,0,0,273.73,431.68Z" transform="translate(-59.16 -146.12)"/><path class="cls-2" d="M320.86,272.69c-2,3.48-5.92,4.56-9,6.57-9.54,6.19-19.29,12.08-29,18.06-3.38,2.09-6.89,4-9.76,6.8-1.86.23-2.12-1.21-2.42-2.45-1.81-7.34-3.55-14.7-5.37-22-2.16-8.71-4.47-17.39-6.52-26.13-1-4.11-2-8.19-3.28-12.19a7.54,7.54,0,0,1,4.4,1c8.25,4.1,16.45,8.3,24.69,12.43,5.07,2.54,10.2,5,15.28,7.49C306.89,265.67,313.87,269.19,320.86,272.69Z" transform="translate(-59.16 -146.12)"/><path class="cls-4" d="M316.95,401.53l-1.24.18c-11.37-7.38-22.86-14.59-34-22.23-4.71-3.22-10-5.52-14.39-9.19-2.39-2-2-2.62.37-4,6.6-3.88,13.68-6.79,20.44-10.34,2.15-1.13,4.84-.84,6.91-2.57a1.86,1.86,0,0,1,2.94.95c.07.21.1.59.18.6,4.35.52,6.27,4.44,9.38,6.68,2.73,2,3.59,5.83,7.3,6.94.55.16-.08,2.51-1.64,2.89a2.51,2.51,0,0,0-2,2.9c.05,1.4,1.16,1.61,2.3,1.81a4,4,0,0,1,2.73,1.63c1,1.46,2.47,1.62,4,1.55l-.64,4.59q0,1.63,0,3.27a2.32,2.32,0,0,0-1.3,2.62c-.14,2.62-1,5.18-.66,7.85-.92.7-.58,1.71-.66,2.62Z" transform="translate(-59.16 -146.12)"/><path class="cls-4" d="M264,303.44c-5,1.13-9.51-1.39-14.17-2.36a65,65,0,0,0-13.83-1.59,50.38,50.38,0,0,1-9.09-.45c-2.28-.39-4.92-.42-5.59,3.26-.56,3.07-5.11,5.83-7.32,5.12-.31-.1-.85-.05-.92-.22-1.54-3.73-5.24-3.18-8.15-4.24-1.34-.49-2.8-.83-3.47-2.59s-3-1.91-4.53-2c-4.69-.3-6.62-3.31-7.38-7.23-.4-2.08-1.16-2.76-3.14-2.78a37.79,37.79,0,0,1-4.16-.61c-.81-.1-1.8-.38-1.91-1-.64-3.86-3.62-3.64-6.35-3.75-3.9-.15-7.51-2.08-11.47-1.76-.76.06-1.81,0-2-.71-1.34-4.6-5.46-3.42-8.43-3.72-7.3-.73-14.47-3-21.93-2.13a1.87,1.87,0,0,1-2.2-1.88,4.17,4.17,0,0,1,2.59-.74c3,1,6.13.19,8.82-.38,7.07-1.49,14.1-.46,21.13-.89a5.36,5.36,0,0,1,2.82.66c2.9,1.5,6.16,1.75,9.23,2.67,4.52,1.36,9.86.38,13.4,4.65.29.35,1,.38,1.52.5,3.31.78,7.41,0,8.84,4.5a.68.68,0,0,0,.5.39c3.66-.17,4.06,2.91,5.21,5.21a4.36,4.36,0,0,0,2,2.09c4.46,2.25,9.2,4,13.29,6.92a2.82,2.82,0,0,0,3.9-.39c2.24-2.93,5.21-5.5,5.59-9.54h0c4.15-1.49,8.67.17,12.86-1.64,1.43-.62,2.2,1,2.52,2.35.41,1.66,1.17,2.8,3.12,2.58.32,0,.88,0,.94.1,1.8,4.18,6.95,2.44,9.55,5.47a7.54,7.54,0,0,0,5.52,3.07C262.87,300.35,263.77,301.73,264,303.44Z" transform="translate(-59.16 -146.12)"/><path class="cls-14" d="M273.11,306.05c4.48.54,8,3.13,11.62,5.47,5.68,3.69,11.25,7.52,16,12.43,1.19,1.22,1.21,3,2,3.67,2.38,2,2.71,4.91,4.12,7.3a5.94,5.94,0,0,1,.87,2.71c.3,3.84,3.7,5.17,7.28,3.77,4-1.57,7.86-3.74,12.31-4a111.87,111.87,0,0,0-2.61,15.7,2.11,2.11,0,0,1-2.33-1.36c-.71-1.5-2.21-1.73-3.58-1.84-1.72-.14-2.43-.81-2.65-2.57-.36-2.86-3.22-3.51-4.93-3-4,1.08-7.93,2.33-11.31,5.15-2.46,2.06-6.1,1.49-9.19,2.24-1.29.32-1.41-1.12-1.31-2.09.22-2-.49-3.86-.74-5.79-.17-1.3-.57-2.79-2.1-3-2.51-.31-2.44-2-2.44-3.79a34.77,34.77,0,0,0-.54-8.09c-.48-2-.78-3.83-3.32-4.11a1.45,1.45,0,0,1-1.29-1.65c.87-6.52-3.79-10.5-6.94-15.13C271,306.43,271.35,306,273.11,306.05Z" transform="translate(-59.16 -146.12)"/><path class="cls-4" d="M324.78,353.14a111.87,111.87,0,0,1,2.61-15.7q0-.65,0-1.31h0c2-.52,3.27-1.71,3.27-3.92h0c3,0,4.55-2.31,6.53-3.93,3.66-1.79,6.55-4.68,9.89-6.93,1.23-.83,2.28-2,3.86-2.22.05,1.38-.26,3.06-1.41,3.45-3.69,1.24-4.22,4.25-4.14,7.25.1,3.72-2.49,6.58-2.61,10.15,0,1-.36,1.94-.32,2.89.13,2.68-.82,3.72-3.65,4.64s-6,1.78-7.78,4.71c-1.54,2.55-4.11,1.26-6.25,1.59Z" transform="translate(-59.16 -146.12)"/><path class="cls-4" d="M324.78,355.77c.88,1.9.56,3.46-1.3,4.58A6.66,6.66,0,0,1,324.78,355.77Z" transform="translate(-59.16 -146.12)"/><path class="cls-1" d="M545.25,313.93c3.77-1.55,7.66-2.8,11.21-4.86,1.19-.69,2.54-.3,3.82-.41-.07.32-.07.86-.22.92-2.44.81-3.07,2.62-3.35,5a6.14,6.14,0,0,1-3.75,5.37c-2.44,1.17-1.45,4.63-1.62,6.92a102.89,102.89,0,0,0,.48,21.11c.2,1.48,1.13,2.15,2.52,2.6,2.35.77,2.63,2.78,1.13,4.7-2.43,3.1-5.45,3.47-8.93,2.47h-.64c-.12-1.68-1.22-2-2.63-1.95-3.57.36-5.8-3-9.14-3.29q0-1,0-2c1.23.4,2.47.77,3.69,1.2.89.32,1.77,1.11,2.72.37,1.26-1,0-1.92-.14-2.9A17.78,17.78,0,0,1,540,346c0-4.77,0-9.53,0-14.3C540,325.26,540.94,319.11,545.25,313.93Z" transform="translate(-59.16 -146.12)"/><path class="cls-3" d="M429.45,410.06a36,36,0,0,1-.66-9.11,2.29,2.29,0,0,1,1.32-1.35,5.11,5.11,0,0,0,4.85,1.25c3.11-.76,6-1,8.4,1.65a1.41,1.41,0,0,0,1.22.19c2.77-.91,5.61-.34,8.41-.46,1.91-.08,3-.84,3.3-2.83a33.87,33.87,0,0,1,.92-4.76c.31-1.08.49-2.21,1.81-2.88,2.62-1.31,3.91-4.59,7.36-4.87,1-.08.94-1.52,1-2.5.23-2.36.32-4.79,1.62-6.87a17.51,17.51,0,0,0,2.29-8h0c3.1.47,3.93,2.83,3.46,5.26-.55,2.89-1,5.77-2.84,8.49a25.48,25.48,0,0,0-4.53,15.57c.39,7.83-.66,15.62-.68,23.44,0,.92.23,1.94-1.46,1.83-3.57-.24-7.17-.23-10.75-.28-1.43,0-2.63-.24-2.82-2s-1.4-2-2.83-1.95c-1.73,0-2.22,1.2-2.35,2.57s-.06,2.83,0,4.24-.16,2.87-2.14,3c-1.82.1-3.52-.34-3.63-2.36s-1.23-2.55-3-3.14c-3.06-1-3.86-2.91-2.52-5.88,1.48-3.29-.88-6.07-.86-9.15,0-1-1.24-1.07-2-.29A3.44,3.44,0,0,1,429.45,410.06Z" transform="translate(-59.16 -146.12)"/><path class="cls-5" d="M545.25,313.93c-4.31,5.18-5.29,11.33-5.25,17.8,0,4.77,0,9.53,0,14.3a17.78,17.78,0,0,0,.36,3.19c.19,1,1.4,1.92.14,2.9-1,.74-1.83-.05-2.72-.37-1.22-.43-2.46-.8-3.69-1.2-4.7.16-8.05-3.21-12.13-4.69-1-.37-2.43-.48-2.91-1.84.59-1,.94-2.41,1.82-3,1.94-1.29,2.11-3,2.15-5,.09-4.95-.33-10.12,4.63-13.43.67-.45.56-1.36.55-2.12l13-5.26C542.74,315.24,543.66,313.5,545.25,313.93Z" transform="translate(-59.16 -146.12)"/><path class="cls-3" d="M517.76,344c-.11.54-.24,1.14-.91,1.15-6.75.16-13.5.49-20.07,2.14-3.26.82-6.65,1.61-9.13,4.22a3.1,3.1,0,0,1-2,1,5.44,5.44,0,0,0-4.61,3.23c-1.57,4.61-5.53,6.84-8.77,9.78a3.23,3.23,0,0,0-1,4h0c-4.74-2.15-5-3.3-1.41-6.73,2-1.94,4.63-3.64,5.69-6.14,2.76-6.55,10.12-7.59,14.13-12.53.05-.06.21,0,.31-.06,4.9-.64,9.64-2.48,14.7-2,1.79.16,3.47-.21,4.51-1.94l1.3,0c.1,1.27,1,1.3,2,1.29C514.71,341.39,515.81,343.55,517.76,344Z" transform="translate(-59.16 -146.12)"/><path class="cls-2" d="M517.76,344c-2-.46-3.06-2.61-5.23-2.62a2,2,0,0,0-2-1.29l-1.3,0-.66-1.3a55.48,55.48,0,0,1,5.17-11.14c.88-1.45,3.12-1.28,3.34-3.25l11.1-4c0,.76.12,1.67-.55,2.12-5,3.31-4.54,8.49-4.63,13.43,0,2-.21,3.74-2.15,5-.88.59-1.23,2-1.82,3Z" transform="translate(-59.16 -146.12)"/><path class="cls-1" d="M356.84,442.12h.65c2-.06,4-.05,4.58-2.61l.65-.65a4.2,4.2,0,0,0,3.92-2,1.42,1.42,0,0,0,1.31-.66c2,.47,2.78-1.94,4.58-2,.84-.47,1.92-.7,2-2h0c1,0,1.88,0,2-1.31h2v1.31c-.5,5.74,1.36,11.3,1.3,17-4.43-.72-8.74.46-13.1.78s-8.71-1.14-13.13-1c-.66,0-1.68-.37-1.57-1.3a2.82,2.82,0,0,1,1.87-2.1C355.53,445,357,444.32,356.84,442.12Z" transform="translate(-59.16 -146.12)"/><path class="cls-5" d="M378.42,431h-2c-1,0-1.88,0-2,1.31h0c-2.73-.85-5.42-1.68-7.55-3.86s-5.31-2-7.94-3.13-5.34-2-8.46-1c-2,.69-3.74-.62-4.18-3-.47-2.57-1.77-3-4.23-2.06s-4.8.84-5.91,4c-.7,2-4.28,1.62-5-.56-.91-2.85-2.75-2.86-5-2.83-4.91.06-5.12-.29-5.4-5.41-.24-4.48-2.56-8.47-3.25-12.86q8.46-4.89,16.92-9.79l34.12-19.66.66.06c3.32,7.09,2.16,15,3.61,22.39,1,4.94,1.49,10.12,2.19,15.2.73,5.31,2.54,10.51,2,16-.22,2.26.6,3.47,2.71,4Z" transform="translate(-59.16 -146.12)"/><path class="cls-2" d="M379.79,429.73c-2.1-.52-2.93-1.74-2.71-4,.54-5.45-1.27-10.64-2-16-.7-5.08-1.23-10.26-2.19-15.2-1.45-7.44-.29-15.3-3.61-22.39l1.26-.18a5.26,5.26,0,0,0,1.51,2.05c2.72,2,5.92,2.85,9,3.89a27.58,27.58,0,0,1,7.09,3.48c2.66,1.93,5.78,2.5,8.45,4.25s7.1.86,9,4.68c.19.37.91.5,1.41.69,3.18,1.21,7.16.78,9.1,4.56.22.42,1.18.4,1.73.72,2.57,1.47,5.82.58,8.24,2.27,1.67,1.16,2,.68,2.06-1s-.37-3.76,1.31-5.16c1.53,1.47-.23,3.78,1.31,5.25l-.66,1.95a2.29,2.29,0,0,0-1.32,1.35c-6,2.49-11.43,6.09-16.86,9.56-5.73,3.66-11.77,6.76-17.44,10.49-3.87,2.55-7.86,4.91-11.78,7.38A7.57,7.57,0,0,1,379.79,429.73Z" transform="translate(-59.16 -146.12)"/><path class="cls-12" d="M226.66,288.39c-.37,4-3.35,6.61-5.59,9.54a2.82,2.82,0,0,1-3.9.39c-4.09-3-8.83-4.68-13.29-6.92a4.36,4.36,0,0,1-2-2.09c-1.16-2.3-1.56-5.38-5.21-5.21a.68.68,0,0,1-.5-.39c-1.43-4.49-5.52-3.72-8.84-4.5-.52-.12-1.23-.15-1.52-.5-3.54-4.26-8.88-3.29-13.4-4.65-3.06-.92-6.32-1.17-9.23-2.67a5.36,5.36,0,0,0-2.82-.66c-7,.43-14.06-.6-21.13.89-2.69.57-5.85,1.41-8.82.38,5.47-3.45,11.51-5.47,17.69-7.18,1.53,1.46,3.07-.11,4.62-.06,6.09.2,12.23-.33,18.28.2,5.89.51,11.67,2.2,17.55,2.95A27.31,27.31,0,0,1,199,271.83c2.38,1.43,6.19,1.59,7.45,5.75.54,1.78,4,4.25,7,4.81,2,.39,3,1,2.8,3.06-.2,2.35,1,3.21,3.17,2.91C221.81,288,224.23,290.31,226.66,288.39Z" transform="translate(-59.16 -146.12)"/><path class="cls-7" d="M124.67,215.76q0,23.45-.08,46.89c0,1.41.15,2.83-.58,4.14-2.42,2-4.86,2-7.52.33a8.57,8.57,0,0,0-4.72-1c-7.08.12-14.21-.66-21.17,1.33,1.38-3.61,2.75-7.23,4.14-10.83.95-2.46,3.1-3.13,5.4-3.52,2.5-.43,3.82-1.59,4.4-4.36a20.05,20.05,0,0,1,4.31-9.34,78.12,78.12,0,0,0,5.7-7.78c1.83-2.86,4-5.58,5.74-8.64a4.1,4.1,0,0,0,.41-3.27A13.13,13.13,0,0,1,124.67,215.76Z" transform="translate(-59.16 -146.12)"/><path class="cls-5" d="M83.41,304.73c2.56.42,4.8,1.74,7.21,2.59l0,.06c.13.63,0,1.49.43,1.85,4.25,4,6.09,9.37,8.76,14.35,2.4,4.47,2.85,9.43,5.16,13.8a12,12,0,0,1,1.29,4.32c.19,1.87.48,3.69,2.55,4s4.44.32,6-1.72h3.91a17.35,17.35,0,0,0,4.09,6.07c4.34,4.59,8.74,9.09,11.82,14.67a3.69,3.69,0,0,0,3,2.14l-4.53,7.86c-1.9-2.58-3.35-5.42-5.35-8a101.27,101.27,0,0,0-16.66-17.58c-2.75-2.21-7.56-1.46-10.06,1.37H97.79c-.62-.07-1.76,0-1.61-.63.77-3.32-1.71-6.19-1.06-9.52a6.09,6.09,0,0,0-1.78-5.93c-1.62-1.57-.75-4.12-1.34-6.2-.91-3.2-1.34-6.54-2-9.82a20.37,20.37,0,0,0-5.67-11.06A3.15,3.15,0,0,1,83.41,304.73Z" transform="translate(-59.16 -146.12)"/><path class="cls-6" d="M97.79,350.53h3.26c2.76,1.36,2.66,4.69,5,6.74,4.82,4.15,9.91,8.42,12.53,14.59,1,2.26,2.73,4.16,3.65,6.2,1.46,3.23,3.49,6.29,4.32,9.82l-.67,3.25-1.38.69c-3.78-1.6-7.88-2.5-11.13-5.21.78-.56,1.82-.93.51-2.14-4.14-3.81-7.59-8.26-11.25-12.51-1-1.14-.41-3.1-1.25-3.91C99,365.7,96.8,363.09,94.35,361c-1.61-1.39-4.56-2-6.8-3.24a4.71,4.71,0,0,0-4.07-.16A18.49,18.49,0,0,1,76.86,359c1.85-2.32,4.82-2.29,7.26-3.1,3.45-1.15,7-2,10-4.13C95.34,350.91,97.4,353.16,97.79,350.53Z" transform="translate(-59.16 -146.12)"/><path class="cls-6" d="M74.9,359c-.23,1.53-1.42,1.74-2.63,1.95C72.4,359.34,73.49,359,74.9,359Z" transform="translate(-59.16 -146.12)"/><path class="cls-16" d="M124,273.91l2.14,2.63a7.7,7.7,0,0,0,2.44,4A74.43,74.43,0,0,0,137,295c.52,3.12,2.62,5.46,4.2,8,2.94,4.76,5.31,9.89,8.93,14.23.81,4.73,4.08,8.06,6.72,11.74-.16,1.78-1.29,3.1-2.14,4.56-1.08-.64-2-1.61-3.5-1.14a54.31,54.31,0,0,1-5.61,1.24,22.25,22.25,0,0,0-8.53,3.8c-2.58-.53-4.65,1.64-7.19,1.35a1.24,1.24,0,0,0-1.33,1.27h-1.28c-4.72-9.24-10.91-17.47-17.39-25.52-.88-1.09-1.89-2.16-3.54-1.95-1.64-1.1-3.88-1-5.25-2.6,2.42-1.81,5.71-1.33,8.15-3.43,2.78-2.39,5.43-4.56,6.64-8.32.72-2.23,1.24-4.58,3.08-6.72,1.29-1.5,1.54-4.65,2.84-6.93.75-1.31,0-2.54-1.72-2.74,2.1-1.11,2.28-3.43,3.27-5.23l.14.25.11-.11-.25-.14v-1.94Z" transform="translate(-59.16 -146.12)"/><path class="cls-15" d="M120,281.85c1.73.2,2.46,1.43,1.72,2.74-1.3,2.27-1.55,5.43-2.84,6.93-1.84,2.13-2.36,4.49-3.08,6.72-1.21,3.76-3.85,5.93-6.64,8.32-2.44,2.1-5.73,1.62-8.15,3.43l-1.33,0c-1.56-.29-2.77-1.8-4.55-1.33-1.62-.09-2.86-1.59-4.59-1.28l0-.06.39-1.51c2.64.82,4.77-1.7,7.4-1.08,5,1.18,7.09-3,9.51-5.79,1.32-1.52,2.36-3.52,3.72-5.2,2.49-3.09,5.43-5.93,6-10.2A2,2,0,0,1,120,281.85Z" transform="translate(-59.16 -146.12)"/><path class="cls-3" d="M162.56,430.35c-2.43-.68-4.7-1.47-4.77-4.65,0-.8-.89-1.18-1.71-1.23a3.05,3.05,0,0,1-2.62-1.7c-.87-1.82-1.36-3.74-3.9-4.06-.83-.1-.53-1.5-.78-2.29-.91-2.87-1.87-5.39-4.43-7.73-2.91-2.65-6.71-5.52-6.65-10.4,7.35,2.18,13.93,6.14,20.92,9.14,4.79,2.06,9.1,5.15,14.44,6.07,1.9.33,3.14,2.81,5.48,2.86-.48,2.1,1.16,3,2.34,4.2l-1.33,2.56c-4.95.27-8.54,3.77-12.86,5.53A31.71,31.71,0,0,1,162.56,430.35Z" transform="translate(-59.16 -146.12)"/><path class="cls-14" d="M179.55,423.12l1.33-2.56c1.89.17,3-1.49,4.57-2a6.68,6.68,0,0,0,3.18-1.48c4.38-3,8.78-6,13.17-9,1.68.09,2.25-2,3.92-2-1.71,5.56.75,10.92.84,16.4,0,1.06.91,1.92,1.62,2.77,2,2.45,3.91,5,3.44,8.47-.24,1.75,1.27,2.24,2.68,3.22a6.75,6.75,0,0,1-6.79-.76,27.17,27.17,0,0,0-9.45-4.1c-2.54-.67-4.81-2.23-7.27-3.26-3-1.25-7.05-1.11-8.37-5.3C182.06,422.43,180.37,424.38,179.55,423.12Z" transform="translate(-59.16 -146.12)"/><path class="cls-5" d="M185.46,418.57c-1.59.5-2.68,2.17-4.57,2-1.18-1.18-2.82-2.1-2.34-4.2-2.33-.05-3.58-2.54-5.48-2.86-5.34-.92-9.65-4-14.44-6.07-7-3-13.57-7-20.92-9.14-3.14-1.52-6.24-3.14-9.45-4.51a2.53,2.53,0,0,1-1.71-2.72c.49-.8,2-.49,2-1.79,5.86-2.41,10.81-6.36,16.19-9.58,8-4.76,15.78-9.83,23.65-14.77a4.52,4.52,0,0,1,2,4.6c1.76,5.65,3.32,11.38,5.35,16.94s3.24,11.2,5.51,16.64C183.32,408,185.3,413.08,185.46,418.57Z" transform="translate(-59.16 -146.12)"/><path class="cls-4" d="M128.58,389.26c-.05,1.31-1.54,1-2,1.79l-.62.06.67-3.25,6.55-11.79a11.58,11.58,0,0,0,5.19-3.58c5.33-7.16,11.91-13.15,18.16-19.45.68-.69,1.4-1.6,2.25-1.81,4.87-1.19,5.75-4.55,5.14-8.87a16.33,16.33,0,0,1,0-2.28c2,.44,1.12,2,1.3,3.2.14.93-.11,2.3,1.21,2.24s.78-1.4.73-2.15c-.43-6.15-.83-12.31-1.49-18.44-.16-1.5-.65-3-.39-4.5.66-3.67-1.67-6.91-1.34-10.49.09-1-.52-2.37.71-3s2.61.2,3.51,1.11a70.12,70.12,0,0,0,12.65,9.69,149.82,149.82,0,0,1,13.13,9.57c3.76,3,7.24,6.29,11.84,8,.35.13.46.91.68,1.39-6.05,4.56-12.06,9.18-18.17,13.67-5.91,4.34-11.91,8.56-17.89,12.81a4.37,4.37,0,0,1-1.22.4,9.93,9.93,0,0,1-.62-1.83c-.35-2.53,0-6.15-2.32-7-2.9-1-5.59,1.6-7.91,3.59-.16.14-.3.31-.46.46-6.46,5.68-13,11.28-19,17.48C135,380.35,131.21,384.34,128.58,389.26Z" transform="translate(-59.16 -146.12)"/><path class="cls-9" d="M565.49,384.58q0,1.3,0,2.59c-1,1.58,0,2.2,1.3,2.62.68,4,3.64,7,4.53,10.78,1.23,5.24,4.5,9.6,6,14.72a1.23,1.23,0,0,0,1.29,1.32l0,1.95c.39,2.77,3,4.81,2.61,7.84l-2-.64c-1.59-1.73-3.84-2.4-5.81-3.51-7.73-4.35-15.58-8.5-23.31-12.85-6.75-3.79-14-6.67-20.29-11.3a4.26,4.26,0,0,0-4.91.16c-2,1.08-4,2.16-6,3.23-7.1,3.78-14.13,7.68-21.33,11.25-2.65,1.31-4.7,3.89-8,3.94a4.37,4.37,0,0,0-.69-4.21c-1.25-1.94-.69-4,1.63-4.21,4-.41,3.42-3.07,2.6-5.16-1.16-2.92-.12-4.81,1.82-6.56s3.39-4.44,5.8-6.11c2-1.37,1.11-3.53.1-5.28a24.94,24.94,0,0,0-1.72-2c-3-4.11-2.48-4.55,1.22-8.18,3.28-3.21,6.79-3.77,10.93-3.6s8.49,0,12.73,0c2.9,0,5.53-.14,8.3-1.84,3.05-1.87,7.05-1.16,10.5-.43,2.86.61,3.86,5,2.2,7.74-.39.64-1,1.14-1.39,1.8-2.1,3.92-1,5.8,3.43,5.8h17.09Z" transform="translate(-59.16 -146.12)"/><path class="cls-2" d="M489.65,416.69c3.26-.06,5.31-2.63,8-3.94,7.2-3.57,14.23-7.47,21.33-11.25,2-1.07,4-2.15,6-3.23,1.11.61,1.36,1.33,1,2.66-1.51,5-2.28,10.26-4.39,14.95s-1.72,10-4.72,14.24c-.53.75-.25,2.1-.25,3.17,0,.74.52,1.73.2,2.17-2.76,3.8-.81,8.4-2.26,12.44a9.38,9.38,0,0,1-3.9,5.35,5,5,0,0,1-1.87-.4c-8.07-5.74-17-10.06-25.18-15.71-4-2.75-8-5.39-12-8.13a1.75,1.75,0,0,1-.83-1.29c3.46-1.85,7.09-3.46,10.34-5.63C483.84,420.18,487.52,419.66,489.65,416.69Z" transform="translate(-59.16 -146.12)"/><path class="cls-8" d="M565.49,384.58l-1.29,0a12.25,12.25,0,0,1-1.32-4.58C565.7,380.42,564.67,383,565.49,384.58Z" transform="translate(-59.16 -146.12)"/><path class="cls-3" d="M543.26,355.78c1.41-.08,2.51.27,2.63,1.95C544.49,357.79,543.39,357.44,543.26,355.78Z" transform="translate(-59.16 -146.12)"/><path class="cls-2" d="M561.61,368.15c3.32,1.63,5.77,4.4,8.53,6.73,4.08,3.45,7.87,7.24,11.78,10.88-3.85,1.58-6-.9-8.28-3.34-3.53-3.8-7.06-7.63-10.8-11.23A3.51,3.51,0,0,1,561.61,368.15Z" transform="translate(-59.16 -146.12)"/><path class="cls-10" d="M528.22,320.41l-11.1,4a9.25,9.25,0,0,0-2.71.62c-2.89.91-5.05,3.65-8.4,3.31-1-2.52-.68-5.14-.84-7.76-.19-3.21,1.15-7.78-4.27-8.62a.78.78,0,0,1-.48-.41c-1.26-2.82-3.69-2.86-6.29-2.89-4.62,0-9.3.63-13.8-1.22-2.71-1.11-5.32-2.52-8.59-1.67-1.42.37-1.83-1.49-1.73-2.9,4.81-2.86,10.13-4.61,15.16-7,8.77-4.16,17.5-8.42,26.27-12.57,6.23-2.95,12.5-5.79,18.76-8.68a13.59,13.59,0,0,1-2.87,7.39,31.75,31.75,0,0,0-3.39,6.46c-.81,1.77-2.57,3.69,0,6,1.11,1,.83,3.68.95,5.62.11,1.73.64,3,2.45,3.33a3.12,3.12,0,0,1,2.89,3,1.84,1.84,0,0,0,2.11,1.61c1.32,0,2.61.52,3.84.5,3.18,0,4.6,1.35,4.68,4.43a14.94,14.94,0,0,0,.38,2.22Z" transform="translate(-59.16 -146.12)"/><path class="cls-11" d="M273.73,431.68a14.73,14.73,0,0,1,9.09.45c7.94,3,16.31,3.89,24.43,5.93a8.91,8.91,0,0,0,3.54-.14c.86-.15,1.82-.68,2.52-.12,2.75,2.21,6,1.63,9.07,1.72,2.35.07,3.67,1.28,3.69,3.65s1.79,2.58,3.07,3.76c2.33,2.15,5.51,3.08,7.42,5.66h0c-2.79.06-4,2.56-5.88,3.91-1.8.54-3-1.1-4.58-1.29-.48-.73-1.24-.63-2-.64a3.42,3.42,0,0,0-2.64-1.31c-11.25-5-22.45-10.08-33.78-14.89C282.95,436.34,278.07,434.6,273.73,431.68Z" transform="translate(-59.16 -146.12)"/><path class="cls-2" d="M330.67,456.5c1.93-1.35,3.09-3.86,5.88-3.91-.1,1.75-3.32,3.26-.25,5.34.61.41-.52,1.4-1.27,1C333.59,458.09,331.61,458.22,330.67,456.5Z" transform="translate(-59.16 -146.12)"/><path class="cls-5" d="M321.5,453.26a3.42,3.42,0,0,1,2.64,1.31c-.11.89-.56,1.43-1.49,1.09C321.54,455.26,321.52,454.23,321.5,453.26Z" transform="translate(-59.16 -146.12)"/><path class="cls-14" d="M566.81,389.79c-1.35-.42-2.29-1-1.3-2.62a2,2,0,0,1,1.32,2Z" transform="translate(-59.16 -146.12)"/><path class="cls-6" d="M578.59,416.62a1.23,1.23,0,0,1-1.29-1.32A1.21,1.21,0,0,1,578.59,416.62Z" transform="translate(-59.16 -146.12)"/><path class="cls-2" d="M440,332.24c2.39-.78,3.73-2.89,5.29-4.56,6.47-6.95,12.76-14.06,19.54-20.72a3.36,3.36,0,0,0,1.29-2.18,1.4,1.4,0,0,0,1.25-.7h.6c.35,2,2.15,2.9,3.36,4.23,2.75,3,6.06,5.52,8.49,8.86-.39,1-2,1.86-.52,3,2.69,2.13,4,5.37,6.38,7.71,1.59,1.56,3,3,2.69,5.56-.17,1.45,1,2.42,2.17,3s1.73-.66,2.34-1.32c1.91-2,3.83-2.22,5.89-.28-.13,1.53-1.13,1.85-2.48,2a11.55,11.55,0,0,0-6.54,2.38c-7.63,6.53-14.45,13.89-21.33,21.2-1.92,2-3.55,4.6-6.28,5.85.34-2.44-1.11-4-3-4.93-3.19-1.61-5.12-4.55-7.46-6.93-3.21-3.27-6.71-6.16-10.16-9.11a16.14,16.14,0,0,0-3.86-2.87c-2.81-1.18-.76,3.21-3,2.9l-.06-6C435.56,336.3,438.88,335.11,440,332.24Z" transform="translate(-59.16 -146.12)"/><path class="cls-15" d="M479.83,317.16c-2.43-3.34-5.74-5.82-8.49-8.86-1.21-1.34-3-2.21-3.36-4.23.72-.34,1-1.42,2-1.24-.1,1.41.31,3.27,1.73,2.9,3.27-.84,5.89.56,8.59,1.67,4.5,1.85,9.18,1.18,13.8,1.22,2.6,0,5,.07,6.29,2.89a.78.78,0,0,0,.48.41c5.43.84,4.09,5.41,4.27,8.62.15,2.62-.18,5.24.84,7.76h0c-1,0-1.88,0-2,1.29-1.46-.22-2.37.92-3.53,1.43-2.66,1.16-4.74,1.77-7.43-1C488.79,325.63,484.77,320.9,479.83,317.16Z" transform="translate(-59.16 -146.12)"/><path class="cls-9" d="M485.06,240.64h2.61c0,.72.07,1.48-.65,2H484.4Z" transform="translate(-59.16 -146.12)"/><path class="cls-12" d="M440,332.24c-1.13,2.86-4.45,4.06-5.38,7.07a24.07,24.07,0,0,0-3.74,1.07c-7.36,3.43-14.52,7.3-21.7,11-9.9,5.15-20,10-29.71,15.45-3,1.66-6.69,2.18-8.93,5.14l-1.26.18-.66-.06c0-7.23,2-14.33,1.29-21.6-.32-11.18.81-22.32.83-33.5,0-4.29.4-8.64.51-13,4,.05,6.44-3.13,9.62-4.77,4.93-2.55,9.37-6,14.53-8.16a11.41,11.41,0,0,0,4.62-3.41c5.48,0,11,0,16.45,0,2.14,0,3.88,0,4,2.94,0,1.63,1.43,2.25,3,2.34,2,.11,3,1.32,3.4,3.3,1.55,6.94,2.31,14.12,4.24,20.87,1.37,4.82,2.39,10,4.92,14.51C437.14,333.7,438.75,331.57,440,332.24Z" transform="translate(-59.16 -146.12)"/><path class="cls-13" d="M369.91,350.54c.67,7.26-1.32,14.37-1.29,21.6l-34.12,19.66q-8.46,4.88-16.92,9.79l-.64,0v-1.28c1.06-.66,1.89-1.38.66-2.62-.36-2.66.53-5.22.66-7.85,1.36-.42,2.32-1,1.3-2.62q0-1.63,0-3.27c2-2.2,6-2.52,6.32-6.46.06-.65.93-1.17,1.73-1.32.43-.08,1.16-.07,1.23-.27,1.19-3.79,5.3-4.8,7.38-7.87a21.75,21.75,0,0,1,7.38-6.52c2.93-1.59,6.9-1.36,10.44-1.72,1.84-.19,4-.65,4.48,2.28.19,1.05,1.51,1.14,2.5.69s1.34-1.34.7-2.14c-2-2.49-.51-4.36,1.4-5.35C365.62,353.91,366.34,350.13,369.91,350.54Z" transform="translate(-59.16 -146.12)"/><path class="cls-3" d="M326.09,318.48l0,.65c.26,1.74-.63,3.62.64,5.24q0,1,0,2c-.4,2.46.87,4.77.66,7.21l0,2.61h0a8.22,8.22,0,0,0-4.12.74,4.44,4.44,0,0,1-5.83-1.39,42.17,42.17,0,0,1-4.34-8.11,9.47,9.47,0,0,0-1.53-3.11c-2.11-2.25-.87-3.46,1.16-5.39,2.75-2.61,6.47-4.57,7.58-8.85,1.36-5.25-.18-10.37-.1-15.54,0-2.4.57-3.88,3.27-2.17.2.51.59,1,.56,1.51-.41,6.76,1.34,13.35,1.41,20.07C324.61,315.58,323.9,317.23,326.09,318.48Z" transform="translate(-59.16 -146.12)"/><path class="cls-3" d="M322.16,277.27l.67,10.46c-.88.23-.44,2.34-1.9,1.51-1.13-.64-2.49-1.14-2.72-2.89-.41-3.12,1.3-5.81,1.52-8.82C319.85,276.08,321.33,277.48,322.16,277.27Z" transform="translate(-59.16 -146.12)"/><path class="cls-14" d="M327.42,333.53c.21-2.44-1.06-4.75-.66-7.21,3.53.79,4.62,2.43,3.91,5.9h0Z" transform="translate(-59.16 -146.12)"/><path class="cls-14" d="M326.75,324.37c-1.28-1.61-.38-3.5-.64-5.24C328.59,320.6,328.92,322.33,326.75,324.37Z" transform="translate(-59.16 -146.12)"/><path class="cls-8" d="M326.09,318.48c-2.19-1.25-1.48-2.91-.64-4.58C326.67,315.29,325.87,317,326.09,318.48Z" transform="translate(-59.16 -146.12)"/><path class="cls-3" d="M185.46,418.57c-.16-5.49-2.14-10.6-4.18-15.49-2.27-5.44-3.5-11.15-5.51-16.64s-3.59-11.28-5.35-16.94c2.1,1.23,4.17,2.44,4.32,5.31,0,.81.38,1.93,1.36,2,3.45.36,2.81,2.88,2.8,5.06,0,3-.54,6.21,4.1,6a1.07,1.07,0,0,1,1.08,1,4.47,4.47,0,0,0,4.23,4.19c.79.1,1,.74,1.08,1.41.59,3.08,2.73,4,5.52,3.74s5.17-.1,5.57,3.77c.2,2,2.66,3.61,1.32,6.06-4.39,3-8.79,6-13.17,9A6.68,6.68,0,0,1,185.46,418.57Z" transform="translate(-59.16 -146.12)"/><path class="cls-7" d="M128.58,389.26c2.63-4.92,6.4-8.9,10.25-12.88,6-6.2,12.52-11.8,19-17.48.16-.14.3-.32.46-.46,2.33-2,5-4.59,7.91-3.59,2.33.81,2,4.43,2.32,7a9.93,9.93,0,0,0,.62,1.83l-.7,1.27c-7.87,4.94-15.67,10-23.65,14.77C139.38,382.89,134.43,386.85,128.58,389.26Z" transform="translate(-59.16 -146.12)"/><path class="cls-1" d="M137,295a74.44,74.44,0,0,1-8.41-14.44c4.48,1.6,6,6.17,9,9.19,2.4,2.36,4,5.78,6.19,8,3.69,3.74,8,7,11.34,11.13a15.08,15.08,0,0,0,5.49,4.38q0,1.63,0,3.27c-1.34,3-.33,6.11-.61,9.15A43.47,43.47,0,0,0,161,337.58a2.6,2.6,0,0,1-1.18,3,68.7,68.7,0,0,0-9.53,8.71,6.56,6.56,0,0,1-4.7,2.59c0-1.65,1.51-2.86,1.29-4.57l0,0a1.2,1.2,0,0,0,1.22-1.36l1.24-2.62,1.43-1.93a74.38,74.38,0,0,0,6.79-6.45,4.65,4.65,0,0,0-.18-6.67l-.05-3.23a3.46,3.46,0,0,0,.81-5.28c-3.69-3.12-5.77-7.5-9.16-10.73a72.9,72.9,0,0,1-7.39-8.64C140.18,298.53,139.82,295.64,137,295Z" transform="translate(-59.16 -146.12)"/><path class="cls-9" d="M145.61,351.89a6.57,6.57,0,0,0,4.7-2.59,68.7,68.7,0,0,1,9.53-8.71,2.6,2.6,0,0,0,1.18-3A43.48,43.48,0,0,1,160,325.67l2.59.67q0,1,0,2c-.64.44-.63.88,0,1.31q0,1,0,2c.32,2.39-.73,4.91.66,7.2a1.4,1.4,0,0,0,.64,1.31,16.33,16.33,0,0,0,0,2.28c.61,4.31-.27,7.68-5.14,8.87-.85.21-1.57,1.12-2.25,1.81-6.25,6.3-12.82,12.3-18.16,19.45a11.58,11.58,0,0,1-5.19,3.58l0-1.32,4.53-7.86c.93-1.93,2.23-3.68,2.69-5.83Z" transform="translate(-59.16 -146.12)"/><path class="cls-6" d="M160.61,313.25a15.08,15.08,0,0,1-5.49-4.38c-3.32-4.17-7.65-7.39-11.34-11.13-2.19-2.23-3.79-5.66-6.19-8-3.07-3-4.56-7.59-9-9.19a7.7,7.7,0,0,1-2.44-4,4.67,4.67,0,0,1,3,1c10.44,8.79,21.45,16.85,32.29,25.12a2.71,2.71,0,0,1,1.26,3.2C162.16,308.37,162,311,160.61,313.25Z" transform="translate(-59.16 -146.12)"/><path class="cls-4" d="M162.55,326.34l-2.59-.67c.28-3-.73-6.18.61-9.15,2.1.94,1.7,3,1.93,4.66A37.56,37.56,0,0,1,162.55,326.34Z" transform="translate(-59.16 -146.12)"/><path class="cls-4" d="M163.22,338.76c-1.39-2.29-.34-4.81-.66-7.2C165,333.76,163.87,336.28,163.22,338.76Z" transform="translate(-59.16 -146.12)"/><path class="cls-4" d="M162.56,329.6c-.64-.43-.65-.87,0-1.31C163.19,328.73,163.2,329.16,162.56,329.6Z" transform="translate(-59.16 -146.12)"/><path class="cls-5" d="M372.54,434.27c-1.8,0-2.57,2.43-4.58,2,.16-1-1.5-2.56.2-3C369.52,432.83,371.6,431.88,372.54,434.27Z" transform="translate(-59.16 -146.12)"/><path class="cls-5" d="M366.65,436.89a4.2,4.2,0,0,1-3.92,2c.19-.48.41-1,.58-1.45.27-.81-.32-2.13,1-2.31C365.52,434.94,366.11,436,366.65,436.89Z" transform="translate(-59.16 -146.12)"/><path class="cls-5" d="M362.08,439.5c-.56,2.56-2.59,2.55-4.58,2.61C358.68,440.65,360,439.49,362.08,439.5Z" transform="translate(-59.16 -146.12)"/><path class="cls-7" d="M319.55,387.17c1,1.59.06,2.2-1.3,2.62A2.32,2.32,0,0,1,319.55,387.17Z" transform="translate(-59.16 -146.12)"/><path class="cls-7" d="M317.59,397.64c1.24,1.24.4,2-.66,2.62C317,399.34,316.67,398.33,317.59,397.64Z" transform="translate(-59.16 -146.12)"/><path class="cls-9" d="M327.42,333.53l3.25-1.31c0,2.22-1.24,3.4-3.27,3.92Z" transform="translate(-59.16 -146.12)"/><path class="cls-1" d="M462.17,366.25c2.73-1.25,4.36-3.81,6.28-5.85,6.88-7.31,13.7-14.66,21.33-21.2a11.55,11.55,0,0,1,6.54-2.38c1.35-.13,2.34-.44,2.48-2,3.57.56,6.39,3,9.81,3.93l.66,1.3c-1,1.73-2.72,2.1-4.51,1.94-5.07-.45-9.8,1.39-14.7,2-.11,0-.26,0-.31.06-4,4.93-11.37,6-14.13,12.53-1.06,2.51-3.65,4.2-5.69,6.14-3.6,3.43-3.33,4.58,1.41,6.73a17.51,17.51,0,0,1-2.29,8c-1.29,2.08-1.38,4.51-1.62,6.87-.1,1,0,2.42-1,2.5-3.45.28-4.75,3.55-7.36,4.87-1.33.67-1.51,1.8-1.81,2.88a33.87,33.87,0,0,0-.92,4.76c-.26,2-1.4,2.75-3.3,2.83-2.8.12-5.64-.45-8.41.46a1.41,1.41,0,0,1-1.22-.19c-2.41-2.64-5.29-2.41-8.4-1.65a5.11,5.11,0,0,1-4.85-1.25l.66-1.95c1.24,0,1.9-.95,2.66-1.71,6.55-6.58,13.14-13.14,19.63-19.78C456.19,372.95,459.14,369.56,462.17,366.25Z" transform="translate(-59.16 -146.12)"/><path class="cls-1" d="M510.56,340.09a2,2,0,0,1,2,1.29C511.59,341.39,510.67,341.36,510.56,340.09Z" transform="translate(-59.16 -146.12)"/><path class="cls-11" d="M508.6,338.78c-3.42-.94-6.24-3.36-9.81-3.93-2.06-1.95-4-1.77-5.89.28-.62.66-1.21,1.85-2.34,1.32s-2.34-1.53-2.17-3c.29-2.51-1.11-4-2.69-5.56-2.39-2.34-3.69-5.58-6.38-7.71-1.49-1.18.13-2.06.52-3,4.94,3.73,9,8.46,13.23,12.86,2.7,2.77,4.77,2.16,7.43,1,1.17-.51,2.07-1.65,3.53-1.43,1,0,1.87,0,2-1.29h0c3.35.34,5.51-2.4,8.4-3.31a9.25,9.25,0,0,1,2.71-.62c-.23,2-2.47,1.8-3.34,3.25A55.48,55.48,0,0,0,508.6,338.78Z" transform="translate(-59.16 -146.12)"/><path class="cls-2" d="M374.51,432.31c.08-1.3,1-1.32,2-1.31C376.38,432.28,375.46,432.32,374.51,432.31Z" transform="translate(-59.16 -146.12)"/><path class="cls-5" d="M370.54,372c2.24-3,5.95-3.49,8.93-5.14,9.76-5.41,19.81-10.29,29.71-15.45,7.19-3.74,14.34-7.61,21.7-11a24.07,24.07,0,0,1,3.74-1.07q0,3,.06,6c-1.57.27-1.28,1.51-1.3,2.55-.05,2.39.11,4.8-.15,7.17-1,9-2.5,17.86-2.48,26.91-2.58,1.22-.78,3.52-1.3,5.24v5.23c-1.68,1.41-1.27,3.35-1.31,5.16s-.39,2.2-2.06,1c-2.43-1.69-5.68-.8-8.24-2.27-.55-.31-1.51-.3-1.73-.72-1.94-3.78-5.92-3.36-9.1-4.56-.5-.19-1.22-.32-1.41-.69-1.91-3.82-6.23-2.86-9-4.68s-5.79-2.32-8.45-4.25a27.58,27.58,0,0,0-7.09-3.48c-3.08-1-6.29-1.91-9-3.89A5.26,5.26,0,0,1,370.54,372Z" transform="translate(-59.16 -146.12)"/><path class="cls-11" d="M430.76,381.93c0-9.05,1.52-18,2.48-26.91.25-2.37.09-4.78.15-7.17,0-1-.27-2.28,1.3-2.55,2.28.31.22-4.08,3-2.9a16.14,16.14,0,0,1,3.86,2.87c3.45,2.95,7,5.84,10.16,9.11,2.34,2.39,4.28,5.33,7.46,6.93,1.85.93,3.31,2.49,3,4.93-3,3.31-6,6.7-9.11,9.91-6.49,6.65-13.08,13.2-19.63,19.78-.76.76-1.42,1.69-2.66,1.71-1.55-1.47.22-3.77-1.31-5.25q0-2.61,0-5.23C432,386,430.23,383.66,430.76,381.93Z" transform="translate(-59.16 -146.12)"/><path class="cls-3" d="M133.12,374.74l0,1.32-6.55,11.79c-.83-3.53-2.86-6.58-4.32-9.82-.92-2-2.69-3.94-3.65-6.2-2.62-6.17-7.71-10.44-12.53-14.59-2.38-2-2.28-5.38-5-6.74,2.51-2.83,7.31-3.57,10.06-1.37a101.27,101.27,0,0,1,16.66,17.58C129.77,369.32,131.22,372.16,133.12,374.74Z" transform="translate(-59.16 -146.12)"/><path class="cls-11" d="M95.18,308.67c1.78-.46,3,1,4.55,1.33,5.88,8.84,12.18,17.42,15.91,27.54.74,2,1.43,4.74,4.4,5.15a1.24,1.24,0,0,1-1.32,1.31h-3.91c-1.14.14-2,.53-2.7-1.2-3.84-9.06-7.49-18.21-12.21-26.89C98.5,313.34,95.49,311.88,95.18,308.67Z" transform="translate(-59.16 -146.12)"/><path class="cls-2" d="M95.18,308.67c.31,3.22,3.32,4.67,4.72,7.25,4.72,8.68,8.37,17.83,12.21,26.89.73,1.73,1.57,1.34,2.7,1.2-1.59,2-3.87,2.08-6,1.72s-2.36-2.15-2.55-4a12,12,0,0,0-1.29-4.32c-2.31-4.36-2.77-9.33-5.16-13.8-2.67-5-4.51-10.34-8.76-14.35-.38-.36-.3-1.22-.43-1.85C92.33,307.07,93.56,308.58,95.18,308.67Z" transform="translate(-59.16 -146.12)"/><path class="cls-2" d="M118.72,344a1.24,1.24,0,0,0,1.32-1.31h2c0,.75,0,1.5.87,1.91,4.36,2,6.39,6.35,9.23,9.73,2.42,2.88,4.35,5.84,8.24,6.73-.47,2.14-1.76,3.9-2.69,5.83a3.69,3.69,0,0,1-3-2.14c-3.09-5.57-7.48-10.07-11.82-14.67A17.35,17.35,0,0,1,118.72,344Z" transform="translate(-59.16 -146.12)"/><path class="cls-10" d="M122,342.68h-2c-3-.41-3.66-3.15-4.4-5.15-3.73-10.12-10-18.69-15.91-27.54l1.33,0c1.37,1.64,3.61,1.5,5.25,2.6a3,3,0,0,0,1.28,3.07,8.26,8.26,0,0,1,2.58,2.85c2.39,4.3,5,8.49,7.29,12.84,1.81,3.41,5.56,6,4.54,10.64Z" transform="translate(-59.16 -146.12)"/><path class="cls-10" d="M149.38,343.31l-1.24,2.62a1.18,1.18,0,0,0-1.22,1.36l0,0c-5.22,0-9.8-2.36-14.34-4.4-1.75-.79-4.37.34-5.32-2.21v-.66h1.28a1.19,1.19,0,0,0,1.33-1.27c2.54.29,4.61-1.87,7.19-1.35a2.55,2.55,0,0,0,2.25,1.68C143.28,339.09,146,341.86,149.38,343.31Z" transform="translate(-59.16 -146.12)"/><path class="cls-15" d="M127.24,340.05v.66c-1.93-.35-3.44,1.07-5.23,1.28,1-4.62-2.73-7.24-4.54-10.64-2.31-4.35-4.9-8.54-7.29-12.84a8.26,8.26,0,0,0-2.58-2.85,3,3,0,0,1-1.28-3.07c1.65-.22,2.66.85,3.54,1.95C116.32,322.58,122.51,330.81,127.24,340.05Z" transform="translate(-59.16 -146.12)"/><path class="cls-15" d="M149.38,343.31c-3.33-1.46-6.1-4.22-10.09-4.21a2.55,2.55,0,0,1-2.25-1.68,22.25,22.25,0,0,1,8.53-3.8,54.31,54.31,0,0,0,5.61-1.24c1.5-.47,2.42.5,3.5,1.14-1.27,2.64-3,5-3.88,7.87Z" transform="translate(-59.16 -146.12)"/><path class="cls-2" d="M137,295c2.84.67,3.21,3.56,4.64,5.42A72.9,72.9,0,0,0,149,309c3.39,3.22,5.47,7.61,9.16,10.73a3.45,3.45,0,0,1-.81,5.28c-1-2.8-4.06-4.24-4.9-7.25-.26-.95-1.52-.53-2.36-.57-3.62-4.34-6-9.47-8.93-14.23C139.6,300.44,137.49,298.1,137,295Z" transform="translate(-59.16 -146.12)"/><path class="cls-2" d="M150.8,341.39c.86-2.84,2.61-5.23,3.88-7.87.85-1.46,2-2.78,2.13-4.56l.59-.7a4.65,4.65,0,0,1,.18,6.67A74.38,74.38,0,0,1,150.8,341.39Z" transform="translate(-59.16 -146.12)"/><path class="cls-10" d="M157.41,328.26l-.59.7c-2.64-3.69-5.91-7-6.72-11.74.84,0,2.1-.37,2.36.57.83,3,3.85,4.45,4.9,7.25Q157.38,326.65,157.41,328.26Z" transform="translate(-59.16 -146.12)"/><path class="cls-15" d="M129.85,338.77a1.19,1.19,0,0,1-1.33,1.27A1.24,1.24,0,0,1,129.85,338.77Z" transform="translate(-59.16 -146.12)"/><polygon class="cls-10" points="64.15 130.49 64.4 130.63 64.29 130.75 64.15 130.49"/><path class="cls-10" d="M506,328.31c-.1,1.28-1,1.31-2,1.29C504.12,328.31,505,328.28,506,328.31Z" transform="translate(-59.16 -146.12)"/><path class="cls-11" d="M122,342c1.8-.21,3.3-1.63,5.23-1.28.95,2.55,3.57,1.42,5.32,2.21,4.54,2,9.12,4.42,14.34,4.4.22,1.71-1.3,2.92-1.29,4.57l-5.26,9.16c-3.88-.88-5.82-3.85-8.24-6.73-2.85-3.39-4.88-7.74-9.23-9.73-.91-.41-.83-1.16-.87-1.91Z" transform="translate(-59.16 -146.12)"/><path class="cls-11" d="M146.91,347.3a1.18,1.18,0,0,1,1.22-1.36A1.2,1.2,0,0,1,146.91,347.3Z" transform="translate(-59.16 -146.12)"/><path class="cls-2" d="M430.76,381.93c-.52,1.72,1.27,4-1.3,5.24C430,385.45,428.18,383.15,430.76,381.93Z" transform="translate(-59.16 -146.12)"/></svg>